%TF.GenerationSoftware,KiCad,Pcbnew,6.0.6*%
%TF.CreationDate,2022-09-03T22:52:37+02:00*%
%TF.ProjectId,fake8080c,66616b65-3830-4383-9063-2e6b69636164,rev?*%
%TF.SameCoordinates,Original*%
%TF.FileFunction,Soldermask,Bot*%
%TF.FilePolarity,Negative*%
%FSLAX46Y46*%
G04 Gerber Fmt 4.6, Leading zero omitted, Abs format (unit mm)*
G04 Created by KiCad (PCBNEW 6.0.6) date 2022-09-03 22:52:37*
%MOMM*%
%LPD*%
G01*
G04 APERTURE LIST*
%TA.AperFunction,Profile*%
%ADD10C,0.100000*%
%TD*%
%ADD11R,1.700000X1.700000*%
%ADD12O,1.700000X1.700000*%
G04 APERTURE END LIST*
D10*
X225425000Y-41275000D02*
X98425000Y-41275000D01*
X98425000Y-41275000D02*
X98425000Y-139700000D01*
X98425000Y-139700000D02*
X225425000Y-139700000D01*
X225425000Y-139700000D02*
X225425000Y-41275000D01*
D11*
%TO.C,J105*%
X106997500Y-75247500D03*
D12*
X106997500Y-77787500D03*
X106997500Y-80327500D03*
X106997500Y-82867500D03*
X106997500Y-85407500D03*
X106997500Y-87947500D03*
X106997500Y-90487500D03*
X106997500Y-93027500D03*
%TD*%
D11*
%TO.C,J104*%
X217170000Y-93012500D03*
D12*
X217170000Y-90472500D03*
X217170000Y-87932500D03*
X217170000Y-85392500D03*
X217170000Y-82852500D03*
X217170000Y-80312500D03*
X217170000Y-77772500D03*
X217170000Y-75232500D03*
%TD*%
D11*
%TO.C,J103*%
X178132500Y-48260000D03*
D12*
X180672500Y-48260000D03*
X183212500Y-48260000D03*
X185752500Y-48260000D03*
X188292500Y-48260000D03*
X190832500Y-48260000D03*
X193372500Y-48260000D03*
X195912500Y-48260000D03*
%TD*%
D11*
%TO.C,J102*%
X154925000Y-136207500D03*
D12*
X152385000Y-136207500D03*
X149845000Y-136207500D03*
X147305000Y-136207500D03*
X144765000Y-136207500D03*
X142225000Y-136207500D03*
X139685000Y-136207500D03*
X137145000Y-136207500D03*
%TD*%
D11*
%TO.C,J101*%
X191452500Y-136207500D03*
D12*
X188912500Y-136207500D03*
X186372500Y-136207500D03*
X183832500Y-136207500D03*
X181292500Y-136207500D03*
X178752500Y-136207500D03*
X176212500Y-136207500D03*
X173672500Y-136207500D03*
%TD*%
M02*
