%FSLAX45Y45*%
G04 Gerber Fmt 4.5, Leading zero omitted, Abs format (unit mm)*
G04 Created by KiCad (PCBNEW 6.0.6) date 2022-09-03 22:52:49*
%MOMM*%
%LPD*%
G01*
G04 APERTURE LIST*
%TA.AperFunction,Profile*%
%ADD10C,0.100000*%
%TD*%
%ADD11C,0.200000*%
G04 APERTURE END LIST*
D10*
X22542500Y-4127500D02*
X9842500Y-4127500D01*
X9842500Y-4127500D02*
X9842500Y-13970000D01*
X9842500Y-13970000D02*
X22542500Y-13970000D01*
X22542500Y-13970000D02*
X22542500Y-4127500D01*
D11*
X10095119Y-14285476D02*
X10095119Y-14085476D01*
X10142738Y-14085476D01*
X10171310Y-14095000D01*
X10190357Y-14114048D01*
X10199881Y-14133095D01*
X10209405Y-14171190D01*
X10209405Y-14199762D01*
X10199881Y-14237857D01*
X10190357Y-14256905D01*
X10171310Y-14275952D01*
X10142738Y-14285476D01*
X10095119Y-14285476D01*
X10295119Y-14285476D02*
X10295119Y-14152143D01*
X10295119Y-14190238D02*
X10304643Y-14171190D01*
X10314167Y-14161667D01*
X10333214Y-14152143D01*
X10352262Y-14152143D01*
X10418929Y-14285476D02*
X10418929Y-14152143D01*
X10418929Y-14085476D02*
X10409405Y-14095000D01*
X10418929Y-14104524D01*
X10428452Y-14095000D01*
X10418929Y-14085476D01*
X10418929Y-14104524D01*
X10542738Y-14285476D02*
X10523690Y-14275952D01*
X10514167Y-14256905D01*
X10514167Y-14085476D01*
X10647500Y-14285476D02*
X10628452Y-14275952D01*
X10618929Y-14256905D01*
X10618929Y-14085476D01*
X10876071Y-14285476D02*
X10876071Y-14085476D01*
X10942738Y-14228333D01*
X11009405Y-14085476D01*
X11009405Y-14285476D01*
X11190357Y-14285476D02*
X11190357Y-14180714D01*
X11180833Y-14161667D01*
X11161786Y-14152143D01*
X11123690Y-14152143D01*
X11104643Y-14161667D01*
X11190357Y-14275952D02*
X11171310Y-14285476D01*
X11123690Y-14285476D01*
X11104643Y-14275952D01*
X11095119Y-14256905D01*
X11095119Y-14237857D01*
X11104643Y-14218809D01*
X11123690Y-14209286D01*
X11171310Y-14209286D01*
X11190357Y-14199762D01*
X11285595Y-14152143D02*
X11285595Y-14352143D01*
X11285595Y-14161667D02*
X11304643Y-14152143D01*
X11342738Y-14152143D01*
X11361786Y-14161667D01*
X11371309Y-14171190D01*
X11380833Y-14190238D01*
X11380833Y-14247381D01*
X11371309Y-14266428D01*
X11361786Y-14275952D01*
X11342738Y-14285476D01*
X11304643Y-14285476D01*
X11285595Y-14275952D01*
X11466548Y-14266428D02*
X11476071Y-14275952D01*
X11466548Y-14285476D01*
X11457024Y-14275952D01*
X11466548Y-14266428D01*
X11466548Y-14285476D01*
X11466548Y-14161667D02*
X11476071Y-14171190D01*
X11466548Y-14180714D01*
X11457024Y-14171190D01*
X11466548Y-14161667D01*
X11466548Y-14180714D01*
M02*
