M48
; DRILL file {KiCad 6.0.6} date Sat 03 Sep 2022 10:52:52 PM CEST
; FORMAT={-:-/ absolute / metric / decimal}
; #@! TF.CreationDate,2022-09-03T22:52:52+02:00
; #@! TF.GenerationSoftware,Kicad,Pcbnew,6.0.6
; #@! TF.FileFunction,Plated,1,2,PTH
FMAT,2
METRIC
; #@! TA.AperFunction,Plated,PTH,ViaDrill
T1C0.300
; #@! TA.AperFunction,Plated,PTH,ComponentDrill
T2C1.000
%
G90
G05
T1
X110.807Y-82.867
X111.442Y-95.25
X111.478Y-80.328
X111.76Y-127.0
X112.078Y-67.627
X112.078Y-120.015
X112.712Y-74.93
X112.712Y-113.983
X113.347Y-60.325
X113.347Y-76.2
X113.347Y-123.825
X116.205Y-72.39
X116.205Y-122.555
X116.205Y-125.095
X116.503Y-78.085
X116.522Y-88.265
X116.522Y-93.345
X116.522Y-98.108
X116.71Y-82.867
X116.71Y-83.667
X116.84Y-74.295
X116.84Y-110.49
X116.88Y-98.823
X117.157Y-89.535
X117.157Y-92.075
X117.475Y-79.375
X117.475Y-107.95
X117.475Y-114.617
X117.51Y-88.818
X118.11Y-73.66
X118.11Y-80.01
X118.11Y-90.805
X118.11Y-109.22
X118.11Y-111.76
X120.08Y-71.438
X120.08Y-87.312
X120.08Y-103.188
X120.08Y-119.062
X121.602Y-61.595
X121.602Y-73.66
X121.602Y-126.365
X122.202Y-90.805
X122.237Y-74.93
X122.237Y-110.49
X122.237Y-114.982
X122.872Y-77.47
X122.872Y-93.345
X123.507Y-78.74
X123.507Y-109.184
X124.142Y-121.92
X124.142Y-131.762
X124.46Y-99.107
X124.777Y-105.41
X124.777Y-106.68
X124.777Y-131.127
X125.376Y-99.732
X125.412Y-110.49
X125.412Y-122.555
X125.412Y-125.73
X126.047Y-77.47
X126.047Y-88.265
X126.047Y-93.345
X126.047Y-98.707
X126.047Y-104.14
X126.047Y-115.382
X129.222Y-76.2
X129.222Y-89.535
X129.222Y-92.075
X129.222Y-98.108
X129.222Y-121.285
X129.54Y-125.095
X129.54Y-131.127
X129.857Y-72.39
X129.857Y-104.775
X130.175Y-126.365
X130.493Y-74.93
X130.493Y-89.535
X130.493Y-107.315
X130.493Y-123.825
X130.81Y-95.25
X131.127Y-73.66
X131.127Y-77.47
X131.127Y-83.502
X131.127Y-90.805
X131.127Y-105.41
X131.127Y-109.22
X131.127Y-111.76
X131.127Y-120.015
X131.127Y-126.365
X131.127Y-127.635
X131.127Y-130.728
X132.78Y-71.438
X132.78Y-87.312
X132.78Y-103.188
X132.78Y-119.062
X134.302Y-74.93
X134.302Y-91.44
X134.302Y-95.885
X134.302Y-110.49
X134.302Y-113.347
X134.902Y-93.345
X134.938Y-82.867
X136.525Y-121.285
X136.525Y-132.727
X137.16Y-121.92
X137.16Y-125.095
X138.112Y-74.93
X138.112Y-104.14
X138.112Y-108.585
X138.148Y-122.555
X138.748Y-75.565
X138.748Y-88.265
X138.748Y-93.345
X138.748Y-100.072
X138.748Y-106.68
X138.748Y-126.365
X141.758Y-114.617
X141.922Y-57.785
X141.922Y-76.2
X141.922Y-89.535
X141.922Y-92.075
X141.922Y-98.472
X141.922Y-104.14
X141.922Y-106.68
X141.922Y-109.22
X141.958Y-126.46
X142.558Y-114.617
X142.558Y-121.285
X142.558Y-130.728
X143.192Y-72.39
X143.192Y-82.55
X143.192Y-105.41
X143.192Y-127.635
X143.827Y-73.66
X143.827Y-80.01
X143.827Y-90.805
X143.827Y-107.95
X143.827Y-109.22
X143.827Y-110.49
X143.827Y-120.015
X143.827Y-122.555
X143.827Y-123.825
X143.827Y-126.365
X144.78Y-129.857
X145.48Y-71.438
X145.48Y-87.312
X145.48Y-103.188
X145.48Y-118.745
X147.002Y-59.055
X147.002Y-67.627
X147.002Y-73.66
X147.002Y-74.93
X147.002Y-90.805
X147.002Y-95.885
X147.002Y-97.472
X147.002Y-111.76
X147.002Y-123.19
X147.32Y-132.292
X147.602Y-77.47
X147.602Y-113.983
X147.637Y-93.345
X147.637Y-106.68
X147.637Y-123.825
X148.272Y-82.867
X148.272Y-89.535
X148.272Y-121.285
X148.272Y-129.857
X148.309Y-114.982
X149.86Y-132.692
X150.048Y-99.272
X150.048Y-105.41
X150.448Y-91.44
X150.495Y-78.74
X150.812Y-110.49
X151.447Y-77.47
X151.447Y-88.265
X151.447Y-93.345
X151.447Y-106.68
X151.447Y-107.95
X151.447Y-114.018
X151.447Y-126.365
X151.447Y-131.092
X154.623Y-76.2
X154.623Y-89.535
X154.623Y-92.075
X154.623Y-97.472
X154.623Y-99.907
X154.623Y-104.14
X154.906Y-133.384
X154.94Y-125.095
X154.94Y-130.493
X155.257Y-72.39
X155.257Y-121.285
X155.857Y-99.614
X155.892Y-105.41
X155.892Y-106.68
X155.892Y-111.125
X156.077Y-132.292
X156.21Y-77.47
X156.21Y-82.233
X156.528Y-93.345
X156.528Y-98.072
X156.528Y-107.95
X156.528Y-109.22
X156.528Y-115.382
X156.528Y-120.015
X156.528Y-126.365
X156.793Y-73.025
X158.18Y-71.438
X158.18Y-87.312
X158.18Y-103.188
X158.498Y-119.062
X159.702Y-74.93
X159.702Y-95.885
X159.702Y-98.072
X159.702Y-110.49
X159.702Y-114.617
X159.702Y-123.825
X160.02Y-127.635
X160.06Y-124.54
X160.302Y-89.535
X160.338Y-74.295
X160.338Y-111.76
X160.501Y-98.117
X160.937Y-82.867
X160.972Y-80.01
X160.972Y-108.585
X161.607Y-78.74
X161.607Y-131.127
X162.243Y-79.375
X162.243Y-90.805
X162.243Y-127.0
X162.524Y-99.578
X162.748Y-107.95
X162.877Y-109.22
X163.233Y-132.33
X163.349Y-98.707
X163.512Y-92.71
X163.512Y-94.615
X163.548Y-110.49
X164.147Y-89.535
X164.147Y-92.075
X164.147Y-98.742
X164.147Y-105.41
X164.147Y-114.982
X164.147Y-124.46
X166.688Y-114.617
X167.322Y-55.245
X167.322Y-74.93
X167.322Y-76.2
X167.322Y-123.825
X167.922Y-93.345
X167.957Y-78.74
X167.957Y-82.867
X167.957Y-88.265
X167.957Y-104.14
X167.957Y-106.68
X167.957Y-110.49
X167.957Y-115.382
X167.957Y-121.285
X167.957Y-122.555
X167.957Y-125.095
X167.993Y-82.069
X168.593Y-72.39
X168.593Y-115.981
X168.593Y-120.015
X168.91Y-93.98
X169.139Y-90.805
X169.227Y-73.66
X169.227Y-80.01
X169.227Y-111.76
X169.227Y-113.983
X169.227Y-121.285
X169.227Y-127.635
X170.88Y-71.438
X170.88Y-87.312
X170.88Y-103.188
X170.88Y-119.062
X171.4Y-56.515
X172.403Y-73.66
X172.403Y-126.365
X172.874Y-131.137
X173.037Y-74.93
X173.037Y-90.805
X173.037Y-95.885
X173.037Y-98.108
X173.037Y-99.342
X173.037Y-105.41
X173.037Y-122.555
X173.037Y-123.825
X173.038Y-114.664
X173.102Y-50.482
X173.672Y-77.47
X173.672Y-93.345
X173.672Y-131.092
X173.672Y-131.892
X174.308Y-78.74
X174.308Y-99.377
X174.308Y-106.68
X174.942Y-82.55
X174.942Y-89.535
X176.213Y-92.392
X176.213Y-122.555
X176.213Y-125.73
X176.213Y-131.892
X176.847Y-77.47
X176.847Y-88.265
X176.847Y-93.345
X176.847Y-94.615
X176.847Y-121.285
X177.443Y-132.362
X178.117Y-53.975
X178.752Y-131.492
X179.705Y-99.742
X179.705Y-104.14
X179.705Y-110.49
X179.705Y-115.887
X180.022Y-72.39
X180.022Y-76.2
X180.022Y-89.535
X180.022Y-92.075
X180.022Y-98.108
X180.022Y-121.285
X180.022Y-126.365
X180.34Y-132.362
X180.657Y-55.245
X180.657Y-74.93
X180.657Y-88.9
X180.657Y-115.064
X180.657Y-125.095
X180.693Y-107.315
X181.291Y-130.763
X181.292Y-78.74
X181.61Y-73.66
X181.61Y-77.47
X181.927Y-81.915
X181.927Y-90.805
X181.927Y-94.615
X181.927Y-105.41
X181.927Y-109.22
X181.927Y-111.76
X181.927Y-120.015
X181.927Y-126.365
X183.197Y-56.515
X183.262Y-119.062
X183.515Y-71.438
X183.58Y-87.312
X183.58Y-103.188
X185.102Y-121.285
X185.102Y-125.095
X185.102Y-131.762
X185.42Y-74.93
X185.42Y-95.885
X185.42Y-98.742
X185.737Y-57.785
X186.055Y-80.01
X186.055Y-82.55
X186.055Y-92.71
X186.302Y-132.362
X186.373Y-98.742
X186.373Y-120.65
X186.373Y-127.635
X186.69Y-73.66
X186.69Y-83.185
X186.69Y-105.41
X186.69Y-110.49
X187.325Y-82.233
X187.325Y-115.064
X188.278Y-59.055
X188.912Y-131.163
X190.817Y-60.325
X191.452Y-130.763
X191.77Y-114.664
X192.369Y-99.742
X192.405Y-105.41
X192.722Y-53.34
X192.722Y-76.2
X192.722Y-88.265
X192.722Y-93.345
X192.722Y-122.555
X193.357Y-61.595
X193.357Y-72.39
X193.357Y-83.82
X193.357Y-89.535
X193.357Y-92.075
X193.357Y-109.22
X193.357Y-126.365
X193.992Y-104.775
X194.245Y-73.66
X194.245Y-80.01
X194.31Y-82.55
X194.31Y-90.805
X194.627Y-104.14
X194.627Y-106.68
X194.627Y-110.454
X194.627Y-120.015
X194.627Y-122.555
X194.627Y-123.825
X194.627Y-126.365
X195.897Y-62.865
X196.15Y-71.438
X196.28Y-87.312
X196.28Y-103.188
X196.28Y-119.062
X197.802Y-54.61
X197.802Y-73.66
X197.802Y-74.93
X197.802Y-90.805
X197.802Y-95.885
X197.802Y-98.108
X197.802Y-107.95
X197.802Y-127.635
X198.438Y-77.47
X198.438Y-93.345
X198.438Y-111.76
X198.438Y-114.3
X198.438Y-123.825
X198.438Y-131.762
X199.012Y-132.319
X199.072Y-121.285
X199.237Y-114.3
X199.707Y-125.73
X199.707Y-132.715
X200.343Y-78.74
X200.343Y-81.785
X200.343Y-89.535
X200.977Y-75.565
X200.977Y-104.14
X200.977Y-106.68
X200.977Y-107.95
X200.977Y-111.125
X200.977Y-125.095
X200.977Y-131.127
X201.612Y-74.295
X201.612Y-88.9
X201.612Y-110.49
X201.612Y-120.015
X201.612Y-127.635
X202.248Y-77.47
X202.248Y-88.265
X202.248Y-93.345
X202.248Y-106.68
X202.248Y-109.22
X202.248Y-114.3
X205.422Y-68.263
X205.422Y-76.2
X205.422Y-89.535
X205.422Y-92.075
X205.422Y-99.742
X205.422Y-126.365
X206.022Y-79.375
X206.058Y-73.66
X206.058Y-77.47
X206.692Y-72.39
X206.692Y-121.285
X206.692Y-131.762
X206.728Y-90.84
X207.327Y-74.93
X207.327Y-89.535
X207.327Y-99.342
X207.327Y-106.68
X207.327Y-120.015
X207.327Y-126.365
X208.85Y-71.438
X208.98Y-87.312
X208.98Y-103.188
X208.98Y-119.062
X210.502Y-74.93
X210.502Y-91.44
X210.502Y-95.885
X210.502Y-105.41
X210.502Y-113.665
X211.137Y-80.01
X211.137Y-81.597
X211.137Y-83.82
X211.137Y-93.345
X211.137Y-98.742
X211.137Y-111.76
X211.772Y-78.74
X211.772Y-83.185
X211.772Y-107.95
X211.772Y-108.75
X211.772Y-123.825
X211.853Y-81.955
X212.407Y-87.947
X212.407Y-94.615
X212.407Y-104.775
X212.407Y-120.65
X212.407Y-126.365
X213.042Y-90.487
X213.642Y-93.027
X213.995Y-78.105
X214.63Y-52.07
X214.63Y-80.328
X215.265Y-77.47
X215.265Y-85.407
T2
X106.997Y-75.248
X106.997Y-77.787
X106.997Y-80.328
X106.997Y-82.867
X106.997Y-85.407
X106.997Y-87.947
X106.997Y-90.487
X106.997Y-93.027
X137.145Y-136.207
X139.685Y-136.207
X142.225Y-136.207
X144.765Y-136.207
X147.305Y-136.207
X149.845Y-136.207
X152.385Y-136.207
X154.925Y-136.207
X173.672Y-136.207
X176.213Y-136.207
X178.132Y-48.26
X178.752Y-136.207
X180.672Y-48.26
X181.292Y-136.207
X183.213Y-48.26
X183.832Y-136.207
X185.752Y-48.26
X186.373Y-136.207
X188.292Y-48.26
X188.912Y-136.207
X190.832Y-48.26
X191.452Y-136.207
X193.373Y-48.26
X195.912Y-48.26
X217.17Y-75.233
X217.17Y-77.772
X217.17Y-80.312
X217.17Y-82.852
X217.17Y-85.392
X217.17Y-87.932
X217.17Y-90.472
X217.17Y-93.013
T0
M30
