%TF.GenerationSoftware,KiCad,Pcbnew,6.0.6*%
%TF.CreationDate,2022-09-03T22:52:37+02:00*%
%TF.ProjectId,fake8080c,66616b65-3830-4383-9063-2e6b69636164,rev?*%
%TF.SameCoordinates,Original*%
%TF.FileFunction,Paste,Top*%
%TF.FilePolarity,Positive*%
%FSLAX46Y46*%
G04 Gerber Fmt 4.6, Leading zero omitted, Abs format (unit mm)*
G04 Created by KiCad (PCBNEW 6.0.6) date 2022-09-03 22:52:37*
%MOMM*%
%LPD*%
G01*
G04 APERTURE LIST*
G04 Aperture macros list*
%AMRoundRect*
0 Rectangle with rounded corners*
0 $1 Rounding radius*
0 $2 $3 $4 $5 $6 $7 $8 $9 X,Y pos of 4 corners*
0 Add a 4 corners polygon primitive as box body*
4,1,4,$2,$3,$4,$5,$6,$7,$8,$9,$2,$3,0*
0 Add four circle primitives for the rounded corners*
1,1,$1+$1,$2,$3*
1,1,$1+$1,$4,$5*
1,1,$1+$1,$6,$7*
1,1,$1+$1,$8,$9*
0 Add four rect primitives between the rounded corners*
20,1,$1+$1,$2,$3,$4,$5,0*
20,1,$1+$1,$4,$5,$6,$7,0*
20,1,$1+$1,$6,$7,$8,$9,0*
20,1,$1+$1,$8,$9,$2,$3,0*%
G04 Aperture macros list end*
%TA.AperFunction,Profile*%
%ADD10C,0.100000*%
%TD*%
%ADD11RoundRect,0.150000X-0.825000X-0.150000X0.825000X-0.150000X0.825000X0.150000X-0.825000X0.150000X0*%
%ADD12RoundRect,0.150000X-0.875000X-0.150000X0.875000X-0.150000X0.875000X0.150000X-0.875000X0.150000X0*%
%ADD13RoundRect,0.237500X-0.250000X-0.237500X0.250000X-0.237500X0.250000X0.237500X-0.250000X0.237500X0*%
%ADD14RoundRect,0.237500X0.287500X0.237500X-0.287500X0.237500X-0.287500X-0.237500X0.287500X-0.237500X0*%
%ADD15RoundRect,0.225000X-0.225000X-0.250000X0.225000X-0.250000X0.225000X0.250000X-0.225000X0.250000X0*%
G04 APERTURE END LIST*
D10*
X225425000Y-41275000D02*
X98425000Y-41275000D01*
X98425000Y-41275000D02*
X98425000Y-139700000D01*
X98425000Y-139700000D02*
X225425000Y-139700000D01*
X225425000Y-139700000D02*
X225425000Y-41275000D01*
D11*
%TO.C,U133*%
X145350000Y-120015000D03*
X145350000Y-121285000D03*
X145350000Y-122555000D03*
X145350000Y-123825000D03*
X145350000Y-125095000D03*
X145350000Y-126365000D03*
X145350000Y-127635000D03*
X140400000Y-127635000D03*
X140400000Y-126365000D03*
X140400000Y-125095000D03*
X140400000Y-123825000D03*
X140400000Y-122555000D03*
X140400000Y-121285000D03*
X140400000Y-120015000D03*
%TD*%
%TO.C,U132*%
X191200000Y-120015000D03*
X191200000Y-121285000D03*
X191200000Y-122555000D03*
X191200000Y-123825000D03*
X191200000Y-125095000D03*
X191200000Y-126365000D03*
X191200000Y-127635000D03*
X196150000Y-127635000D03*
X196150000Y-126365000D03*
X196150000Y-125095000D03*
X196150000Y-123825000D03*
X196150000Y-122555000D03*
X196150000Y-121285000D03*
X196150000Y-120015000D03*
%TD*%
%TO.C,U131*%
X140400000Y-104140000D03*
X140400000Y-105410000D03*
X140400000Y-106680000D03*
X140400000Y-107950000D03*
X140400000Y-109220000D03*
X140400000Y-110490000D03*
X140400000Y-111760000D03*
X145350000Y-111760000D03*
X145350000Y-110490000D03*
X145350000Y-109220000D03*
X145350000Y-107950000D03*
X145350000Y-106680000D03*
X145350000Y-105410000D03*
X145350000Y-104140000D03*
%TD*%
%TO.C,U130*%
X165800000Y-104140000D03*
X165800000Y-105410000D03*
X165800000Y-106680000D03*
X165800000Y-107950000D03*
X165800000Y-109220000D03*
X165800000Y-110490000D03*
X165800000Y-111760000D03*
X170750000Y-111760000D03*
X170750000Y-110490000D03*
X170750000Y-109220000D03*
X170750000Y-107950000D03*
X170750000Y-106680000D03*
X170750000Y-105410000D03*
X170750000Y-104140000D03*
%TD*%
%TO.C,U129*%
X191200000Y-104140000D03*
X191200000Y-105410000D03*
X191200000Y-106680000D03*
X191200000Y-107950000D03*
X191200000Y-109220000D03*
X191200000Y-110490000D03*
X191200000Y-111760000D03*
X196150000Y-111760000D03*
X196150000Y-110490000D03*
X196150000Y-109220000D03*
X196150000Y-107950000D03*
X196150000Y-106680000D03*
X196150000Y-105410000D03*
X196150000Y-104140000D03*
%TD*%
%TO.C,U128*%
X115000000Y-104140000D03*
X115000000Y-105410000D03*
X115000000Y-106680000D03*
X115000000Y-107950000D03*
X115000000Y-109220000D03*
X115000000Y-110490000D03*
X115000000Y-111760000D03*
X119950000Y-111760000D03*
X119950000Y-110490000D03*
X119950000Y-109220000D03*
X119950000Y-107950000D03*
X119950000Y-106680000D03*
X119950000Y-105410000D03*
X119950000Y-104140000D03*
%TD*%
%TO.C,U127*%
X127700000Y-104140000D03*
X127700000Y-105410000D03*
X127700000Y-106680000D03*
X127700000Y-107950000D03*
X127700000Y-109220000D03*
X127700000Y-110490000D03*
X127700000Y-111760000D03*
X132650000Y-111760000D03*
X132650000Y-110490000D03*
X132650000Y-109220000D03*
X132650000Y-107950000D03*
X132650000Y-106680000D03*
X132650000Y-105410000D03*
X132650000Y-104140000D03*
%TD*%
%TO.C,U126*%
X178500000Y-104140000D03*
X178500000Y-105410000D03*
X178500000Y-106680000D03*
X178500000Y-107950000D03*
X178500000Y-109220000D03*
X178500000Y-110490000D03*
X178500000Y-111760000D03*
X183450000Y-111760000D03*
X183450000Y-110490000D03*
X183450000Y-109220000D03*
X183450000Y-107950000D03*
X183450000Y-106680000D03*
X183450000Y-105410000D03*
X183450000Y-104140000D03*
%TD*%
%TO.C,U125*%
X153100000Y-104140000D03*
X153100000Y-105410000D03*
X153100000Y-106680000D03*
X153100000Y-107950000D03*
X153100000Y-109220000D03*
X153100000Y-110490000D03*
X153100000Y-111760000D03*
X158050000Y-111760000D03*
X158050000Y-110490000D03*
X158050000Y-109220000D03*
X158050000Y-107950000D03*
X158050000Y-106680000D03*
X158050000Y-105410000D03*
X158050000Y-104140000D03*
%TD*%
%TO.C,U124*%
X203900000Y-104140000D03*
X203900000Y-105410000D03*
X203900000Y-106680000D03*
X203900000Y-107950000D03*
X203900000Y-109220000D03*
X203900000Y-110490000D03*
X203900000Y-111760000D03*
X208850000Y-111760000D03*
X208850000Y-110490000D03*
X208850000Y-109220000D03*
X208850000Y-107950000D03*
X208850000Y-106680000D03*
X208850000Y-105410000D03*
X208850000Y-104140000D03*
%TD*%
%TO.C,U123*%
X115000000Y-88265000D03*
X115000000Y-89535000D03*
X115000000Y-90805000D03*
X115000000Y-92075000D03*
X115000000Y-93345000D03*
X115000000Y-94615000D03*
X115000000Y-95885000D03*
X119950000Y-95885000D03*
X119950000Y-94615000D03*
X119950000Y-93345000D03*
X119950000Y-92075000D03*
X119950000Y-90805000D03*
X119950000Y-89535000D03*
X119950000Y-88265000D03*
%TD*%
%TO.C,U122*%
X127700000Y-88265000D03*
X127700000Y-89535000D03*
X127700000Y-90805000D03*
X127700000Y-92075000D03*
X127700000Y-93345000D03*
X127700000Y-94615000D03*
X127700000Y-95885000D03*
X132650000Y-95885000D03*
X132650000Y-94615000D03*
X132650000Y-93345000D03*
X132650000Y-92075000D03*
X132650000Y-90805000D03*
X132650000Y-89535000D03*
X132650000Y-88265000D03*
%TD*%
%TO.C,U121*%
X140400000Y-88265000D03*
X140400000Y-89535000D03*
X140400000Y-90805000D03*
X140400000Y-92075000D03*
X140400000Y-93345000D03*
X140400000Y-94615000D03*
X140400000Y-95885000D03*
X145350000Y-95885000D03*
X145350000Y-94615000D03*
X145350000Y-93345000D03*
X145350000Y-92075000D03*
X145350000Y-90805000D03*
X145350000Y-89535000D03*
X145350000Y-88265000D03*
%TD*%
%TO.C,U120*%
X153100000Y-88265000D03*
X153100000Y-89535000D03*
X153100000Y-90805000D03*
X153100000Y-92075000D03*
X153100000Y-93345000D03*
X153100000Y-94615000D03*
X153100000Y-95885000D03*
X158050000Y-95885000D03*
X158050000Y-94615000D03*
X158050000Y-93345000D03*
X158050000Y-92075000D03*
X158050000Y-90805000D03*
X158050000Y-89535000D03*
X158050000Y-88265000D03*
%TD*%
%TO.C,U119*%
X165800000Y-88265000D03*
X165800000Y-89535000D03*
X165800000Y-90805000D03*
X165800000Y-92075000D03*
X165800000Y-93345000D03*
X165800000Y-94615000D03*
X165800000Y-95885000D03*
X170750000Y-95885000D03*
X170750000Y-94615000D03*
X170750000Y-93345000D03*
X170750000Y-92075000D03*
X170750000Y-90805000D03*
X170750000Y-89535000D03*
X170750000Y-88265000D03*
%TD*%
%TO.C,U118*%
X178500000Y-88265000D03*
X178500000Y-89535000D03*
X178500000Y-90805000D03*
X178500000Y-92075000D03*
X178500000Y-93345000D03*
X178500000Y-94615000D03*
X178500000Y-95885000D03*
X183450000Y-95885000D03*
X183450000Y-94615000D03*
X183450000Y-93345000D03*
X183450000Y-92075000D03*
X183450000Y-90805000D03*
X183450000Y-89535000D03*
X183450000Y-88265000D03*
%TD*%
%TO.C,U117*%
X191200000Y-88265000D03*
X191200000Y-89535000D03*
X191200000Y-90805000D03*
X191200000Y-92075000D03*
X191200000Y-93345000D03*
X191200000Y-94615000D03*
X191200000Y-95885000D03*
X196150000Y-95885000D03*
X196150000Y-94615000D03*
X196150000Y-93345000D03*
X196150000Y-92075000D03*
X196150000Y-90805000D03*
X196150000Y-89535000D03*
X196150000Y-88265000D03*
%TD*%
%TO.C,U116*%
X203900000Y-88265000D03*
X203900000Y-89535000D03*
X203900000Y-90805000D03*
X203900000Y-92075000D03*
X203900000Y-93345000D03*
X203900000Y-94615000D03*
X203900000Y-95885000D03*
X208850000Y-95885000D03*
X208850000Y-94615000D03*
X208850000Y-93345000D03*
X208850000Y-92075000D03*
X208850000Y-90805000D03*
X208850000Y-89535000D03*
X208850000Y-88265000D03*
%TD*%
%TO.C,U115*%
X127700000Y-120015000D03*
X127700000Y-121285000D03*
X127700000Y-122555000D03*
X127700000Y-123825000D03*
X127700000Y-125095000D03*
X127700000Y-126365000D03*
X127700000Y-127635000D03*
X132650000Y-127635000D03*
X132650000Y-126365000D03*
X132650000Y-125095000D03*
X132650000Y-123825000D03*
X132650000Y-122555000D03*
X132650000Y-121285000D03*
X132650000Y-120015000D03*
%TD*%
%TO.C,U114*%
X127700000Y-72390000D03*
X127700000Y-73660000D03*
X127700000Y-74930000D03*
X127700000Y-76200000D03*
X127700000Y-77470000D03*
X127700000Y-78740000D03*
X127700000Y-80010000D03*
X132650000Y-80010000D03*
X132650000Y-78740000D03*
X132650000Y-77470000D03*
X132650000Y-76200000D03*
X132650000Y-74930000D03*
X132650000Y-73660000D03*
X132650000Y-72390000D03*
%TD*%
%TO.C,U113*%
X153100000Y-120015000D03*
X153100000Y-121285000D03*
X153100000Y-122555000D03*
X153100000Y-123825000D03*
X153100000Y-125095000D03*
X153100000Y-126365000D03*
X153100000Y-127635000D03*
X158050000Y-127635000D03*
X158050000Y-126365000D03*
X158050000Y-125095000D03*
X158050000Y-123825000D03*
X158050000Y-122555000D03*
X158050000Y-121285000D03*
X158050000Y-120015000D03*
%TD*%
%TO.C,U112*%
X153100000Y-72390000D03*
X153100000Y-73660000D03*
X153100000Y-74930000D03*
X153100000Y-76200000D03*
X153100000Y-77470000D03*
X153100000Y-78740000D03*
X153100000Y-80010000D03*
X158050000Y-80010000D03*
X158050000Y-78740000D03*
X158050000Y-77470000D03*
X158050000Y-76200000D03*
X158050000Y-74930000D03*
X158050000Y-73660000D03*
X158050000Y-72390000D03*
%TD*%
%TO.C,U111*%
X178500000Y-120015000D03*
X178500000Y-121285000D03*
X178500000Y-122555000D03*
X178500000Y-123825000D03*
X178500000Y-125095000D03*
X178500000Y-126365000D03*
X178500000Y-127635000D03*
X183450000Y-127635000D03*
X183450000Y-126365000D03*
X183450000Y-125095000D03*
X183450000Y-123825000D03*
X183450000Y-122555000D03*
X183450000Y-121285000D03*
X183450000Y-120015000D03*
%TD*%
%TO.C,U110*%
X178500000Y-72390000D03*
X178500000Y-73660000D03*
X178500000Y-74930000D03*
X178500000Y-76200000D03*
X178500000Y-77470000D03*
X178500000Y-78740000D03*
X178500000Y-80010000D03*
X183450000Y-80010000D03*
X183450000Y-78740000D03*
X183450000Y-77470000D03*
X183450000Y-76200000D03*
X183450000Y-74930000D03*
X183450000Y-73660000D03*
X183450000Y-72390000D03*
%TD*%
%TO.C,U109*%
X203900000Y-120015000D03*
X203900000Y-121285000D03*
X203900000Y-122555000D03*
X203900000Y-123825000D03*
X203900000Y-125095000D03*
X203900000Y-126365000D03*
X203900000Y-127635000D03*
X208850000Y-127635000D03*
X208850000Y-126365000D03*
X208850000Y-125095000D03*
X208850000Y-123825000D03*
X208850000Y-122555000D03*
X208850000Y-121285000D03*
X208850000Y-120015000D03*
%TD*%
%TO.C,U108*%
X203900000Y-72390000D03*
X203900000Y-73660000D03*
X203900000Y-74930000D03*
X203900000Y-76200000D03*
X203900000Y-77470000D03*
X203900000Y-78740000D03*
X203900000Y-80010000D03*
X208850000Y-80010000D03*
X208850000Y-78740000D03*
X208850000Y-77470000D03*
X208850000Y-76200000D03*
X208850000Y-74930000D03*
X208850000Y-73660000D03*
X208850000Y-72390000D03*
%TD*%
%TO.C,U107*%
X115000000Y-72390000D03*
X115000000Y-73660000D03*
X115000000Y-74930000D03*
X115000000Y-76200000D03*
X115000000Y-77470000D03*
X115000000Y-78740000D03*
X115000000Y-80010000D03*
X119950000Y-80010000D03*
X119950000Y-78740000D03*
X119950000Y-77470000D03*
X119950000Y-76200000D03*
X119950000Y-74930000D03*
X119950000Y-73660000D03*
X119950000Y-72390000D03*
%TD*%
%TO.C,U106*%
X140400000Y-72390000D03*
X140400000Y-73660000D03*
X140400000Y-74930000D03*
X140400000Y-76200000D03*
X140400000Y-77470000D03*
X140400000Y-78740000D03*
X140400000Y-80010000D03*
X145350000Y-80010000D03*
X145350000Y-78740000D03*
X145350000Y-77470000D03*
X145350000Y-76200000D03*
X145350000Y-74930000D03*
X145350000Y-73660000D03*
X145350000Y-72390000D03*
%TD*%
%TO.C,U105*%
X165800000Y-72390000D03*
X165800000Y-73660000D03*
X165800000Y-74930000D03*
X165800000Y-76200000D03*
X165800000Y-77470000D03*
X165800000Y-78740000D03*
X165800000Y-80010000D03*
X170750000Y-80010000D03*
X170750000Y-78740000D03*
X170750000Y-77470000D03*
X170750000Y-76200000D03*
X170750000Y-74930000D03*
X170750000Y-73660000D03*
X170750000Y-72390000D03*
%TD*%
%TO.C,U104*%
X191200000Y-72390000D03*
X191200000Y-73660000D03*
X191200000Y-74930000D03*
X191200000Y-76200000D03*
X191200000Y-77470000D03*
X191200000Y-78740000D03*
X191200000Y-80010000D03*
X196150000Y-80010000D03*
X196150000Y-78740000D03*
X196150000Y-77470000D03*
X196150000Y-76200000D03*
X196150000Y-74930000D03*
X196150000Y-73660000D03*
X196150000Y-72390000D03*
%TD*%
%TO.C,U103*%
X115000000Y-120015000D03*
X115000000Y-121285000D03*
X115000000Y-122555000D03*
X115000000Y-123825000D03*
X115000000Y-125095000D03*
X115000000Y-126365000D03*
X115000000Y-127635000D03*
X119950000Y-127635000D03*
X119950000Y-126365000D03*
X119950000Y-125095000D03*
X119950000Y-123825000D03*
X119950000Y-122555000D03*
X119950000Y-121285000D03*
X119950000Y-120015000D03*
%TD*%
%TO.C,U102*%
X165800000Y-120015000D03*
X165800000Y-121285000D03*
X165800000Y-122555000D03*
X165800000Y-123825000D03*
X165800000Y-125095000D03*
X165800000Y-126365000D03*
X165800000Y-127635000D03*
X170750000Y-127635000D03*
X170750000Y-126365000D03*
X170750000Y-125095000D03*
X170750000Y-123825000D03*
X170750000Y-122555000D03*
X170750000Y-121285000D03*
X170750000Y-120015000D03*
%TD*%
D12*
%TO.C,U101*%
X163625000Y-51435000D03*
X163625000Y-52705000D03*
X163625000Y-53975000D03*
X163625000Y-55245000D03*
X163625000Y-56515000D03*
X163625000Y-57785000D03*
X163625000Y-59055000D03*
X163625000Y-60325000D03*
X163625000Y-61595000D03*
X163625000Y-62865000D03*
X172925000Y-62865000D03*
X172925000Y-61595000D03*
X172925000Y-60325000D03*
X172925000Y-59055000D03*
X172925000Y-57785000D03*
X172925000Y-56515000D03*
X172925000Y-55245000D03*
X172925000Y-53975000D03*
X172925000Y-52705000D03*
X172925000Y-51435000D03*
%TD*%
D13*
%TO.C,R108*%
X200977500Y-53022500D03*
X202802500Y-53022500D03*
%TD*%
%TO.C,R107*%
X200977500Y-54610000D03*
X202802500Y-54610000D03*
%TD*%
%TO.C,R106*%
X200977500Y-56197500D03*
X202802500Y-56197500D03*
%TD*%
%TO.C,R105*%
X200977500Y-57785000D03*
X202802500Y-57785000D03*
%TD*%
%TO.C,R104*%
X200977500Y-59372500D03*
X202802500Y-59372500D03*
%TD*%
%TO.C,R103*%
X200977500Y-60960000D03*
X202802500Y-60960000D03*
%TD*%
%TO.C,R102*%
X200977500Y-62547500D03*
X202802500Y-62547500D03*
%TD*%
%TO.C,R101*%
X200977500Y-64135000D03*
X202802500Y-64135000D03*
%TD*%
D14*
%TO.C,D108*%
X206575000Y-53022500D03*
X204825000Y-53022500D03*
%TD*%
%TO.C,D107*%
X206575000Y-54610000D03*
X204825000Y-54610000D03*
%TD*%
%TO.C,D106*%
X206575000Y-56197500D03*
X204825000Y-56197500D03*
%TD*%
%TO.C,D105*%
X206575000Y-57785000D03*
X204825000Y-57785000D03*
%TD*%
%TO.C,D104*%
X206575000Y-59372500D03*
X204825000Y-59372500D03*
%TD*%
%TO.C,D103*%
X206575000Y-60960000D03*
X204825000Y-60960000D03*
%TD*%
%TO.C,D102*%
X206575000Y-62547500D03*
X204825000Y-62547500D03*
%TD*%
%TO.C,D101*%
X206575000Y-64135000D03*
X204825000Y-64135000D03*
%TD*%
D15*
%TO.C,C133*%
X145275000Y-118110000D03*
X146825000Y-118110000D03*
%TD*%
%TO.C,C132*%
X196075000Y-118110000D03*
X197625000Y-118110000D03*
%TD*%
%TO.C,C131*%
X145275000Y-102235000D03*
X146825000Y-102235000D03*
%TD*%
%TO.C,C130*%
X170675000Y-102235000D03*
X172225000Y-102235000D03*
%TD*%
%TO.C,C129*%
X196075000Y-102235000D03*
X197625000Y-102235000D03*
%TD*%
%TO.C,C128*%
X119875000Y-102235000D03*
X121425000Y-102235000D03*
%TD*%
%TO.C,C127*%
X132575000Y-102235000D03*
X134125000Y-102235000D03*
%TD*%
%TO.C,C126*%
X183375000Y-102235000D03*
X184925000Y-102235000D03*
%TD*%
%TO.C,C125*%
X157975000Y-102235000D03*
X159525000Y-102235000D03*
%TD*%
%TO.C,C124*%
X208775000Y-102235000D03*
X210325000Y-102235000D03*
%TD*%
%TO.C,C123*%
X119875000Y-86360000D03*
X121425000Y-86360000D03*
%TD*%
%TO.C,C122*%
X132575000Y-86360000D03*
X134125000Y-86360000D03*
%TD*%
%TO.C,C121*%
X145275000Y-86360000D03*
X146825000Y-86360000D03*
%TD*%
%TO.C,C120*%
X157975000Y-86360000D03*
X159525000Y-86360000D03*
%TD*%
%TO.C,C119*%
X170675000Y-86360000D03*
X172225000Y-86360000D03*
%TD*%
%TO.C,C118*%
X183375000Y-86360000D03*
X184925000Y-86360000D03*
%TD*%
%TO.C,C117*%
X196075000Y-86360000D03*
X197625000Y-86360000D03*
%TD*%
%TO.C,C116*%
X208775000Y-86360000D03*
X210325000Y-86360000D03*
%TD*%
%TO.C,C115*%
X132575000Y-118110000D03*
X134125000Y-118110000D03*
%TD*%
%TO.C,C114*%
X132575000Y-70485000D03*
X134125000Y-70485000D03*
%TD*%
%TO.C,C113*%
X158292500Y-118110000D03*
X159842500Y-118110000D03*
%TD*%
%TO.C,C112*%
X157975000Y-70485000D03*
X159525000Y-70485000D03*
%TD*%
%TO.C,C111*%
X183057500Y-118110000D03*
X184607500Y-118110000D03*
%TD*%
%TO.C,C110*%
X183310000Y-70485000D03*
X184860000Y-70485000D03*
%TD*%
%TO.C,C109*%
X208775000Y-118110000D03*
X210325000Y-118110000D03*
%TD*%
%TO.C,C108*%
X208710000Y-70485000D03*
X210260000Y-70485000D03*
%TD*%
%TO.C,C107*%
X119875000Y-70485000D03*
X121425000Y-70485000D03*
%TD*%
%TO.C,C106*%
X145275000Y-70485000D03*
X146825000Y-70485000D03*
%TD*%
%TO.C,C105*%
X170675000Y-70485000D03*
X172225000Y-70485000D03*
%TD*%
%TO.C,C104*%
X196010000Y-70485000D03*
X197560000Y-70485000D03*
%TD*%
%TO.C,C103*%
X119875000Y-118110000D03*
X121425000Y-118110000D03*
%TD*%
%TO.C,C102*%
X170675000Y-118110000D03*
X172225000Y-118110000D03*
%TD*%
%TO.C,C101*%
X172897500Y-49212500D03*
X174447500Y-49212500D03*
%TD*%
M02*
