%FSLAX45Y45*%
G04 Gerber Fmt 4.5, Leading zero omitted, Abs format (unit mm)*
G04 Created by KiCad (PCBNEW 6.0.6) date 2022-09-03 22:52:49*
%MOMM*%
%LPD*%
G01*
G04 APERTURE LIST*
%TA.AperFunction,Profile*%
%ADD10C,0.100000*%
%TD*%
%ADD11C,0.200000*%
%ADD12C,0.030000*%
%ADD13C,0.100000*%
G04 APERTURE END LIST*
D10*
X22542500Y-4127500D02*
X9842500Y-4127500D01*
X9842500Y-4127500D02*
X9842500Y-13970000D01*
X9842500Y-13970000D02*
X22542500Y-13970000D01*
X22542500Y-13970000D02*
X22542500Y-4127500D01*
D11*
D12*
X11065750Y-8271750D02*
X11095750Y-8301750D01*
X11095750Y-8271750D02*
X11065750Y-8301750D01*
X11129250Y-9510000D02*
X11159250Y-9540000D01*
X11159250Y-9510000D02*
X11129250Y-9540000D01*
X11132800Y-8017750D02*
X11162800Y-8047750D01*
X11162800Y-8017750D02*
X11132800Y-8047750D01*
X11161000Y-12685000D02*
X11191000Y-12715000D01*
X11191000Y-12685000D02*
X11161000Y-12715000D01*
X11192750Y-6747750D02*
X11222750Y-6777750D01*
X11222750Y-6747750D02*
X11192750Y-6777750D01*
X11192750Y-11986500D02*
X11222750Y-12016500D01*
X11222750Y-11986500D02*
X11192750Y-12016500D01*
X11256250Y-7478000D02*
X11286250Y-7508000D01*
X11286250Y-7478000D02*
X11256250Y-7508000D01*
X11256250Y-11383250D02*
X11286250Y-11413250D01*
X11286250Y-11383250D02*
X11256250Y-11413250D01*
X11319750Y-6017500D02*
X11349750Y-6047500D01*
X11349750Y-6017500D02*
X11319750Y-6047500D01*
X11319750Y-7605000D02*
X11349750Y-7635000D01*
X11349750Y-7605000D02*
X11319750Y-7635000D01*
X11319750Y-12367500D02*
X11349750Y-12397500D01*
X11349750Y-12367500D02*
X11319750Y-12397500D01*
X11605500Y-7224000D02*
X11635500Y-7254000D01*
X11635500Y-7224000D02*
X11605500Y-7254000D01*
X11605500Y-12240500D02*
X11635500Y-12270500D01*
X11635500Y-12240500D02*
X11605500Y-12270500D01*
X11605500Y-12494500D02*
X11635500Y-12524500D01*
X11635500Y-12494500D02*
X11605500Y-12524500D01*
X11635273Y-7793523D02*
X11665273Y-7823523D01*
X11665273Y-7793523D02*
X11635273Y-7823523D01*
X11637250Y-8811500D02*
X11667250Y-8841500D01*
X11667250Y-8811500D02*
X11637250Y-8841500D01*
X11637250Y-9319500D02*
X11667250Y-9349500D01*
X11667250Y-9319500D02*
X11637250Y-9349500D01*
X11637250Y-9795750D02*
X11667250Y-9825750D01*
X11667250Y-9795750D02*
X11637250Y-9825750D01*
X11656050Y-8271750D02*
X11686050Y-8301750D01*
X11686050Y-8271750D02*
X11656050Y-8301750D01*
X11656050Y-8351700D02*
X11686050Y-8381700D01*
X11686050Y-8351700D02*
X11656050Y-8381700D01*
X11669000Y-7414500D02*
X11699000Y-7444500D01*
X11699000Y-7414500D02*
X11669000Y-7444500D01*
X11669000Y-11034000D02*
X11699000Y-11064000D01*
X11699000Y-11034000D02*
X11669000Y-11064000D01*
X11673005Y-9867260D02*
X11703005Y-9897260D01*
X11703005Y-9867260D02*
X11673005Y-9897260D01*
X11700750Y-8938500D02*
X11730750Y-8968500D01*
X11730750Y-8938500D02*
X11700750Y-8968500D01*
X11700750Y-9192500D02*
X11730750Y-9222500D01*
X11730750Y-9192500D02*
X11700750Y-9222500D01*
X11732500Y-7922500D02*
X11762500Y-7952500D01*
X11762500Y-7922500D02*
X11732500Y-7952500D01*
X11732500Y-10780000D02*
X11762500Y-10810000D01*
X11762500Y-10780000D02*
X11732500Y-10810000D01*
X11732500Y-11446750D02*
X11762500Y-11476750D01*
X11762500Y-11446750D02*
X11732500Y-11476750D01*
X11736050Y-8866765D02*
X11766050Y-8896765D01*
X11766050Y-8866765D02*
X11736050Y-8896765D01*
X11796000Y-7351000D02*
X11826000Y-7381000D01*
X11826000Y-7351000D02*
X11796000Y-7381000D01*
X11796000Y-7986000D02*
X11826000Y-8016000D01*
X11826000Y-7986000D02*
X11796000Y-8016000D01*
X11796000Y-9065500D02*
X11826000Y-9095500D01*
X11826000Y-9065500D02*
X11796000Y-9095500D01*
X11796000Y-10907000D02*
X11826000Y-10937000D01*
X11826000Y-10907000D02*
X11796000Y-10937000D01*
X11796000Y-11161000D02*
X11826000Y-11191000D01*
X11826000Y-11161000D02*
X11796000Y-11191000D01*
X11993000Y-7128750D02*
X12023000Y-7158750D01*
X12023000Y-7128750D02*
X11993000Y-7158750D01*
X11993000Y-8716250D02*
X12023000Y-8746250D01*
X12023000Y-8716250D02*
X11993000Y-8746250D01*
X11993000Y-10303750D02*
X12023000Y-10333750D01*
X12023000Y-10303750D02*
X11993000Y-10333750D01*
X11993000Y-11891250D02*
X12023000Y-11921250D01*
X12023000Y-11891250D02*
X11993000Y-11921250D01*
X12145250Y-6144500D02*
X12175250Y-6174500D01*
X12175250Y-6144500D02*
X12145250Y-6174500D01*
X12145250Y-7351000D02*
X12175250Y-7381000D01*
X12175250Y-7351000D02*
X12145250Y-7381000D01*
X12145250Y-12621500D02*
X12175250Y-12651500D01*
X12175250Y-12621500D02*
X12145250Y-12651500D01*
X12205200Y-9065500D02*
X12235200Y-9095500D01*
X12235200Y-9065500D02*
X12205200Y-9095500D01*
X12208750Y-7478000D02*
X12238750Y-7508000D01*
X12238750Y-7478000D02*
X12208750Y-7508000D01*
X12208750Y-11034000D02*
X12238750Y-11064000D01*
X12238750Y-11034000D02*
X12208750Y-11064000D01*
X12208750Y-11483200D02*
X12238750Y-11513200D01*
X12238750Y-11483200D02*
X12208750Y-11513200D01*
X12272250Y-7732000D02*
X12302250Y-7762000D01*
X12302250Y-7732000D02*
X12272250Y-7762000D01*
X12272250Y-9319500D02*
X12302250Y-9349500D01*
X12302250Y-9319500D02*
X12272250Y-9349500D01*
X12335750Y-7859000D02*
X12365750Y-7889000D01*
X12365750Y-7859000D02*
X12335750Y-7889000D01*
X12335750Y-10903450D02*
X12365750Y-10933450D01*
X12365750Y-10903450D02*
X12335750Y-10933450D01*
X12399250Y-12177000D02*
X12429250Y-12207000D01*
X12429250Y-12177000D02*
X12399250Y-12207000D01*
X12399250Y-13161250D02*
X12429250Y-13191250D01*
X12429250Y-13161250D02*
X12399250Y-13191250D01*
X12431000Y-9895700D02*
X12461000Y-9925700D01*
X12461000Y-9895700D02*
X12431000Y-9925700D01*
X12462750Y-10526000D02*
X12492750Y-10556000D01*
X12492750Y-10526000D02*
X12462750Y-10556000D01*
X12462750Y-10653000D02*
X12492750Y-10683000D01*
X12492750Y-10653000D02*
X12462750Y-10683000D01*
X12462750Y-13097750D02*
X12492750Y-13127750D01*
X12492750Y-13097750D02*
X12462750Y-13127750D01*
X12522590Y-9958175D02*
X12552590Y-9988175D01*
X12552590Y-9958175D02*
X12522590Y-9988175D01*
X12526250Y-11034000D02*
X12556250Y-11064000D01*
X12556250Y-11034000D02*
X12526250Y-11064000D01*
X12526250Y-12240500D02*
X12556250Y-12270500D01*
X12556250Y-12240500D02*
X12526250Y-12270500D01*
X12526250Y-12558000D02*
X12556250Y-12588000D01*
X12556250Y-12558000D02*
X12526250Y-12588000D01*
X12589750Y-7732000D02*
X12619750Y-7762000D01*
X12619750Y-7732000D02*
X12589750Y-7762000D01*
X12589750Y-8811500D02*
X12619750Y-8841500D01*
X12619750Y-8811500D02*
X12589750Y-8841500D01*
X12589750Y-9319500D02*
X12619750Y-9349500D01*
X12619750Y-9319500D02*
X12589750Y-9349500D01*
X12589750Y-9855700D02*
X12619750Y-9885700D01*
X12619750Y-9855700D02*
X12589750Y-9885700D01*
X12589750Y-10399000D02*
X12619750Y-10429000D01*
X12619750Y-10399000D02*
X12589750Y-10429000D01*
X12589750Y-11523200D02*
X12619750Y-11553200D01*
X12619750Y-11523200D02*
X12589750Y-11553200D01*
X12907250Y-7605000D02*
X12937250Y-7635000D01*
X12937250Y-7605000D02*
X12907250Y-7635000D01*
X12907250Y-8938500D02*
X12937250Y-8968500D01*
X12937250Y-8938500D02*
X12907250Y-8968500D01*
X12907250Y-9192500D02*
X12937250Y-9222500D01*
X12937250Y-9192500D02*
X12907250Y-9222500D01*
X12907250Y-9795750D02*
X12937250Y-9825750D01*
X12937250Y-9795750D02*
X12907250Y-9825750D01*
X12907250Y-12113500D02*
X12937250Y-12143500D01*
X12937250Y-12113500D02*
X12907250Y-12143500D01*
X12939000Y-12494500D02*
X12969000Y-12524500D01*
X12969000Y-12494500D02*
X12939000Y-12524500D01*
X12939000Y-13097750D02*
X12969000Y-13127750D01*
X12969000Y-13097750D02*
X12939000Y-13127750D01*
X12970750Y-7224000D02*
X13000750Y-7254000D01*
X13000750Y-7224000D02*
X12970750Y-7254000D01*
X12970750Y-10462500D02*
X13000750Y-10492500D01*
X13000750Y-10462500D02*
X12970750Y-10492500D01*
X13002500Y-12621500D02*
X13032500Y-12651500D01*
X13032500Y-12621500D02*
X13002500Y-12651500D01*
X13034250Y-7478000D02*
X13064250Y-7508000D01*
X13064250Y-7478000D02*
X13034250Y-7508000D01*
X13034250Y-8938500D02*
X13064250Y-8968500D01*
X13064250Y-8938500D02*
X13034250Y-8968500D01*
X13034250Y-10716500D02*
X13064250Y-10746500D01*
X13064250Y-10716500D02*
X13034250Y-10746500D01*
X13034250Y-12367500D02*
X13064250Y-12397500D01*
X13064250Y-12367500D02*
X13034250Y-12397500D01*
X13066000Y-9510000D02*
X13096000Y-9540000D01*
X13096000Y-9510000D02*
X13066000Y-9540000D01*
X13097750Y-7351000D02*
X13127750Y-7381000D01*
X13127750Y-7351000D02*
X13097750Y-7381000D01*
X13097750Y-7732000D02*
X13127750Y-7762000D01*
X13127750Y-7732000D02*
X13097750Y-7762000D01*
X13097750Y-8335250D02*
X13127750Y-8365250D01*
X13127750Y-8335250D02*
X13097750Y-8365250D01*
X13097750Y-9065500D02*
X13127750Y-9095500D01*
X13127750Y-9065500D02*
X13097750Y-9095500D01*
X13097750Y-10526000D02*
X13127750Y-10556000D01*
X13127750Y-10526000D02*
X13097750Y-10556000D01*
X13097750Y-10907000D02*
X13127750Y-10937000D01*
X13127750Y-10907000D02*
X13097750Y-10937000D01*
X13097750Y-11161000D02*
X13127750Y-11191000D01*
X13127750Y-11161000D02*
X13097750Y-11191000D01*
X13097750Y-11986500D02*
X13127750Y-12016500D01*
X13127750Y-11986500D02*
X13097750Y-12016500D01*
X13097750Y-12621500D02*
X13127750Y-12651500D01*
X13127750Y-12621500D02*
X13097750Y-12651500D01*
X13097750Y-12748500D02*
X13127750Y-12778500D01*
X13127750Y-12748500D02*
X13097750Y-12778500D01*
X13097750Y-13057800D02*
X13127750Y-13087800D01*
X13127750Y-13057800D02*
X13097750Y-13087800D01*
X13263000Y-7128750D02*
X13293000Y-7158750D01*
X13293000Y-7128750D02*
X13263000Y-7158750D01*
X13263000Y-8716250D02*
X13293000Y-8746250D01*
X13293000Y-8716250D02*
X13263000Y-8746250D01*
X13263000Y-10303750D02*
X13293000Y-10333750D01*
X13293000Y-10303750D02*
X13263000Y-10333750D01*
X13263000Y-11891250D02*
X13293000Y-11921250D01*
X13293000Y-11891250D02*
X13263000Y-11921250D01*
X13415250Y-7478000D02*
X13445250Y-7508000D01*
X13445250Y-7478000D02*
X13415250Y-7508000D01*
X13415250Y-9129000D02*
X13445250Y-9159000D01*
X13445250Y-9129000D02*
X13415250Y-9159000D01*
X13415250Y-9573500D02*
X13445250Y-9603500D01*
X13445250Y-9573500D02*
X13415250Y-9603500D01*
X13415250Y-11034000D02*
X13445250Y-11064000D01*
X13445250Y-11034000D02*
X13415250Y-11064000D01*
X13415250Y-11319750D02*
X13445250Y-11349750D01*
X13445250Y-11319750D02*
X13415250Y-11349750D01*
X13475200Y-9319500D02*
X13505200Y-9349500D01*
X13505200Y-9319500D02*
X13475200Y-9349500D01*
X13478750Y-8271750D02*
X13508750Y-8301750D01*
X13508750Y-8271750D02*
X13478750Y-8301750D01*
X13637500Y-12113500D02*
X13667500Y-12143500D01*
X13667500Y-12113500D02*
X13637500Y-12143500D01*
X13637500Y-13257700D02*
X13667500Y-13287700D01*
X13667500Y-13257700D02*
X13637500Y-13287700D01*
X13701000Y-12177000D02*
X13731000Y-12207000D01*
X13731000Y-12177000D02*
X13701000Y-12207000D01*
X13701000Y-12494500D02*
X13731000Y-12524500D01*
X13731000Y-12494500D02*
X13701000Y-12524500D01*
X13796250Y-7478000D02*
X13826250Y-7508000D01*
X13826250Y-7478000D02*
X13796250Y-7508000D01*
X13796250Y-10399000D02*
X13826250Y-10429000D01*
X13826250Y-10399000D02*
X13796250Y-10429000D01*
X13796250Y-10843500D02*
X13826250Y-10873500D01*
X13826250Y-10843500D02*
X13796250Y-10873500D01*
X13799800Y-12240500D02*
X13829800Y-12270500D01*
X13829800Y-12240500D02*
X13799800Y-12270500D01*
X13859750Y-7541500D02*
X13889750Y-7571500D01*
X13889750Y-7541500D02*
X13859750Y-7571500D01*
X13859750Y-8811500D02*
X13889750Y-8841500D01*
X13889750Y-8811500D02*
X13859750Y-8841500D01*
X13859750Y-9319500D02*
X13889750Y-9349500D01*
X13889750Y-9319500D02*
X13859750Y-9349500D01*
X13859750Y-9992200D02*
X13889750Y-10022200D01*
X13889750Y-9992200D02*
X13859750Y-10022200D01*
X13859750Y-10653000D02*
X13889750Y-10683000D01*
X13889750Y-10653000D02*
X13859750Y-10683000D01*
X13859750Y-12621500D02*
X13889750Y-12651500D01*
X13889750Y-12621500D02*
X13859750Y-12651500D01*
X14160800Y-11446750D02*
X14190800Y-11476750D01*
X14190800Y-11446750D02*
X14160800Y-11476750D01*
X14177250Y-5763500D02*
X14207250Y-5793500D01*
X14207250Y-5763500D02*
X14177250Y-5793500D01*
X14177250Y-7605000D02*
X14207250Y-7635000D01*
X14207250Y-7605000D02*
X14177250Y-7635000D01*
X14177250Y-8938500D02*
X14207250Y-8968500D01*
X14207250Y-8938500D02*
X14177250Y-8968500D01*
X14177250Y-9192500D02*
X14207250Y-9222500D01*
X14207250Y-9192500D02*
X14177250Y-9222500D01*
X14177250Y-9832200D02*
X14207250Y-9862200D01*
X14207250Y-9832200D02*
X14177250Y-9862200D01*
X14177250Y-10399000D02*
X14207250Y-10429000D01*
X14207250Y-10399000D02*
X14177250Y-10429000D01*
X14177250Y-10653000D02*
X14207250Y-10683000D01*
X14207250Y-10653000D02*
X14177250Y-10683000D01*
X14177250Y-10907000D02*
X14207250Y-10937000D01*
X14207250Y-10907000D02*
X14177250Y-10937000D01*
X14180800Y-12630987D02*
X14210800Y-12660987D01*
X14210800Y-12630987D02*
X14180800Y-12660987D01*
X14240750Y-11446750D02*
X14270750Y-11476750D01*
X14270750Y-11446750D02*
X14240750Y-11476750D01*
X14240750Y-12113500D02*
X14270750Y-12143500D01*
X14270750Y-12113500D02*
X14240750Y-12143500D01*
X14240750Y-13057800D02*
X14270750Y-13087800D01*
X14270750Y-13057800D02*
X14240750Y-13087800D01*
X14304250Y-7224000D02*
X14334250Y-7254000D01*
X14334250Y-7224000D02*
X14304250Y-7254000D01*
X14304250Y-8240000D02*
X14334250Y-8270000D01*
X14334250Y-8240000D02*
X14304250Y-8270000D01*
X14304250Y-10526000D02*
X14334250Y-10556000D01*
X14334250Y-10526000D02*
X14304250Y-10556000D01*
X14304250Y-12748500D02*
X14334250Y-12778500D01*
X14334250Y-12748500D02*
X14304250Y-12778500D01*
X14367750Y-7351000D02*
X14397750Y-7381000D01*
X14397750Y-7351000D02*
X14367750Y-7381000D01*
X14367750Y-7986000D02*
X14397750Y-8016000D01*
X14397750Y-7986000D02*
X14367750Y-8016000D01*
X14367750Y-9065500D02*
X14397750Y-9095500D01*
X14397750Y-9065500D02*
X14367750Y-9095500D01*
X14367750Y-10780000D02*
X14397750Y-10810000D01*
X14397750Y-10780000D02*
X14367750Y-10810000D01*
X14367750Y-10907000D02*
X14397750Y-10937000D01*
X14397750Y-10907000D02*
X14367750Y-10937000D01*
X14367750Y-11034000D02*
X14397750Y-11064000D01*
X14397750Y-11034000D02*
X14367750Y-11064000D01*
X14367750Y-11986500D02*
X14397750Y-12016500D01*
X14397750Y-11986500D02*
X14367750Y-12016500D01*
X14367750Y-12240500D02*
X14397750Y-12270500D01*
X14397750Y-12240500D02*
X14367750Y-12270500D01*
X14367750Y-12367500D02*
X14397750Y-12397500D01*
X14397750Y-12367500D02*
X14367750Y-12397500D01*
X14367750Y-12621500D02*
X14397750Y-12651500D01*
X14397750Y-12621500D02*
X14367750Y-12651500D01*
X14463000Y-12970750D02*
X14493000Y-13000750D01*
X14493000Y-12970750D02*
X14463000Y-13000750D01*
X14533000Y-7128750D02*
X14563000Y-7158750D01*
X14563000Y-7128750D02*
X14533000Y-7158750D01*
X14533000Y-8716250D02*
X14563000Y-8746250D01*
X14563000Y-8716250D02*
X14533000Y-8746250D01*
X14533000Y-10303750D02*
X14563000Y-10333750D01*
X14563000Y-10303750D02*
X14533000Y-10333750D01*
X14533000Y-11859500D02*
X14563000Y-11889500D01*
X14563000Y-11859500D02*
X14533000Y-11889500D01*
X14685250Y-5890500D02*
X14715250Y-5920500D01*
X14715250Y-5890500D02*
X14685250Y-5920500D01*
X14685250Y-6747750D02*
X14715250Y-6777750D01*
X14715250Y-6747750D02*
X14685250Y-6777750D01*
X14685250Y-7351000D02*
X14715250Y-7381000D01*
X14715250Y-7351000D02*
X14685250Y-7381000D01*
X14685250Y-7478000D02*
X14715250Y-7508000D01*
X14715250Y-7478000D02*
X14685250Y-7508000D01*
X14685250Y-9065500D02*
X14715250Y-9095500D01*
X14715250Y-9065500D02*
X14685250Y-9095500D01*
X14685250Y-9573500D02*
X14715250Y-9603500D01*
X14715250Y-9573500D02*
X14685250Y-9603500D01*
X14685250Y-9732250D02*
X14715250Y-9762250D01*
X14715250Y-9732250D02*
X14685250Y-9762250D01*
X14685250Y-11161000D02*
X14715250Y-11191000D01*
X14715250Y-11161000D02*
X14685250Y-11191000D01*
X14685250Y-12304000D02*
X14715250Y-12334000D01*
X14715250Y-12304000D02*
X14685250Y-12334000D01*
X14717000Y-13214200D02*
X14747000Y-13244200D01*
X14747000Y-13214200D02*
X14717000Y-13244200D01*
X14745200Y-7732000D02*
X14775200Y-7762000D01*
X14775200Y-7732000D02*
X14745200Y-7762000D01*
X14745200Y-11383250D02*
X14775200Y-11413250D01*
X14775200Y-11383250D02*
X14745200Y-11413250D01*
X14748750Y-9319500D02*
X14778750Y-9349500D01*
X14778750Y-9319500D02*
X14748750Y-9349500D01*
X14748750Y-10653000D02*
X14778750Y-10683000D01*
X14778750Y-10653000D02*
X14748750Y-10683000D01*
X14748750Y-12367500D02*
X14778750Y-12397500D01*
X14778750Y-12367500D02*
X14748750Y-12397500D01*
X14812250Y-8271750D02*
X14842250Y-8301750D01*
X14842250Y-8271750D02*
X14812250Y-8301750D01*
X14812250Y-8938500D02*
X14842250Y-8968500D01*
X14842250Y-8938500D02*
X14812250Y-8968500D01*
X14812250Y-12113500D02*
X14842250Y-12143500D01*
X14842250Y-12113500D02*
X14812250Y-12143500D01*
X14812250Y-12970750D02*
X14842250Y-13000750D01*
X14842250Y-12970750D02*
X14812250Y-13000750D01*
X14815917Y-11483200D02*
X14845917Y-11513200D01*
X14845917Y-11483200D02*
X14815917Y-11513200D01*
X14971000Y-13254200D02*
X15001000Y-13284200D01*
X15001000Y-13254200D02*
X14971000Y-13284200D01*
X14989800Y-9912200D02*
X15019800Y-9942200D01*
X15019800Y-9912200D02*
X14989800Y-9942200D01*
X14989800Y-10526000D02*
X15019800Y-10556000D01*
X15019800Y-10526000D02*
X14989800Y-10556000D01*
X15029800Y-9129000D02*
X15059800Y-9159000D01*
X15059800Y-9129000D02*
X15029800Y-9159000D01*
X15034500Y-7859000D02*
X15064500Y-7889000D01*
X15064500Y-7859000D02*
X15034500Y-7889000D01*
X15066250Y-11034000D02*
X15096250Y-11064000D01*
X15096250Y-11034000D02*
X15066250Y-11064000D01*
X15129750Y-7732000D02*
X15159750Y-7762000D01*
X15159750Y-7732000D02*
X15129750Y-7762000D01*
X15129750Y-8811500D02*
X15159750Y-8841500D01*
X15159750Y-8811500D02*
X15129750Y-8841500D01*
X15129750Y-9319500D02*
X15159750Y-9349500D01*
X15159750Y-9319500D02*
X15129750Y-9349500D01*
X15129750Y-10653000D02*
X15159750Y-10683000D01*
X15159750Y-10653000D02*
X15129750Y-10683000D01*
X15129750Y-10780000D02*
X15159750Y-10810000D01*
X15159750Y-10780000D02*
X15129750Y-10810000D01*
X15129750Y-11386800D02*
X15159750Y-11416800D01*
X15159750Y-11386800D02*
X15129750Y-11416800D01*
X15129750Y-12621500D02*
X15159750Y-12651500D01*
X15159750Y-12621500D02*
X15129750Y-12651500D01*
X15129750Y-13094200D02*
X15159750Y-13124200D01*
X15159750Y-13094200D02*
X15129750Y-13124200D01*
X15447250Y-7605000D02*
X15477250Y-7635000D01*
X15477250Y-7605000D02*
X15447250Y-7635000D01*
X15447250Y-8938500D02*
X15477250Y-8968500D01*
X15477250Y-8938500D02*
X15447250Y-8968500D01*
X15447250Y-9192500D02*
X15477250Y-9222500D01*
X15477250Y-9192500D02*
X15447250Y-9222500D01*
X15447250Y-9732250D02*
X15477250Y-9762250D01*
X15477250Y-9732250D02*
X15447250Y-9762250D01*
X15447250Y-9975700D02*
X15477250Y-10005700D01*
X15477250Y-9975700D02*
X15447250Y-10005700D01*
X15447250Y-10399000D02*
X15477250Y-10429000D01*
X15477250Y-10399000D02*
X15447250Y-10429000D01*
X15475640Y-13323360D02*
X15505640Y-13353360D01*
X15505640Y-13323360D02*
X15475640Y-13353360D01*
X15479000Y-12494500D02*
X15509000Y-12524500D01*
X15509000Y-12494500D02*
X15479000Y-12524500D01*
X15479000Y-13034250D02*
X15509000Y-13064250D01*
X15509000Y-13034250D02*
X15479000Y-13064250D01*
X15510750Y-7224000D02*
X15540750Y-7254000D01*
X15540750Y-7224000D02*
X15510750Y-7254000D01*
X15510750Y-12113500D02*
X15540750Y-12143500D01*
X15540750Y-12113500D02*
X15510750Y-12143500D01*
X15570700Y-9946396D02*
X15600700Y-9976396D01*
X15600700Y-9946396D02*
X15570700Y-9976396D01*
X15574250Y-10526000D02*
X15604250Y-10556000D01*
X15604250Y-10526000D02*
X15574250Y-10556000D01*
X15574250Y-10653000D02*
X15604250Y-10683000D01*
X15604250Y-10653000D02*
X15574250Y-10683000D01*
X15574250Y-11097500D02*
X15604250Y-11127500D01*
X15604250Y-11097500D02*
X15574250Y-11127500D01*
X15592683Y-13214200D02*
X15622683Y-13244200D01*
X15622683Y-13214200D02*
X15592683Y-13244200D01*
X15606000Y-7732000D02*
X15636000Y-7762000D01*
X15636000Y-7732000D02*
X15606000Y-7762000D01*
X15606000Y-8208250D02*
X15636000Y-8238250D01*
X15636000Y-8208250D02*
X15606000Y-8238250D01*
X15637750Y-9319500D02*
X15667750Y-9349500D01*
X15667750Y-9319500D02*
X15637750Y-9349500D01*
X15637750Y-9792200D02*
X15667750Y-9822200D01*
X15667750Y-9792200D02*
X15637750Y-9822200D01*
X15637750Y-10780000D02*
X15667750Y-10810000D01*
X15667750Y-10780000D02*
X15637750Y-10810000D01*
X15637750Y-10907000D02*
X15667750Y-10937000D01*
X15667750Y-10907000D02*
X15637750Y-10937000D01*
X15637750Y-11523200D02*
X15667750Y-11553200D01*
X15667750Y-11523200D02*
X15637750Y-11553200D01*
X15637750Y-11986500D02*
X15667750Y-12016500D01*
X15667750Y-11986500D02*
X15637750Y-12016500D01*
X15637750Y-12621500D02*
X15667750Y-12651500D01*
X15667750Y-12621500D02*
X15637750Y-12651500D01*
X15664300Y-7287500D02*
X15694300Y-7317500D01*
X15694300Y-7287500D02*
X15664300Y-7317500D01*
X15803000Y-7128750D02*
X15833000Y-7158750D01*
X15833000Y-7128750D02*
X15803000Y-7158750D01*
X15803000Y-8716250D02*
X15833000Y-8746250D01*
X15833000Y-8716250D02*
X15803000Y-8746250D01*
X15803000Y-10303750D02*
X15833000Y-10333750D01*
X15833000Y-10303750D02*
X15803000Y-10333750D01*
X15834750Y-11891250D02*
X15864750Y-11921250D01*
X15864750Y-11891250D02*
X15834750Y-11921250D01*
X15955250Y-7478000D02*
X15985250Y-7508000D01*
X15985250Y-7478000D02*
X15955250Y-7508000D01*
X15955250Y-9573500D02*
X15985250Y-9603500D01*
X15985250Y-9573500D02*
X15955250Y-9603500D01*
X15955250Y-9792200D02*
X15985250Y-9822200D01*
X15985250Y-9792200D02*
X15955250Y-9822200D01*
X15955250Y-11034000D02*
X15985250Y-11064000D01*
X15985250Y-11034000D02*
X15955250Y-11064000D01*
X15955250Y-11446750D02*
X15985250Y-11476750D01*
X15985250Y-11446750D02*
X15955250Y-11476750D01*
X15955250Y-12367500D02*
X15985250Y-12397500D01*
X15985250Y-12367500D02*
X15955250Y-12397500D01*
X15987000Y-12748500D02*
X16017000Y-12778500D01*
X16017000Y-12748500D02*
X15987000Y-12778500D01*
X15991005Y-12439010D02*
X16021005Y-12469010D01*
X16021005Y-12439010D02*
X15991005Y-12469010D01*
X16015200Y-8938500D02*
X16045200Y-8968500D01*
X16045200Y-8938500D02*
X16015200Y-8968500D01*
X16018750Y-7414500D02*
X16048750Y-7444500D01*
X16048750Y-7414500D02*
X16018750Y-7444500D01*
X16018750Y-11161000D02*
X16048750Y-11191000D01*
X16048750Y-11161000D02*
X16018750Y-11191000D01*
X16035076Y-9796663D02*
X16065076Y-9826663D01*
X16065076Y-9796663D02*
X16035076Y-9826663D01*
X16078700Y-8271750D02*
X16108700Y-8301750D01*
X16108700Y-8271750D02*
X16078700Y-8301750D01*
X16082250Y-7986000D02*
X16112250Y-8016000D01*
X16112250Y-7986000D02*
X16082250Y-8016000D01*
X16082250Y-10843500D02*
X16112250Y-10873500D01*
X16112250Y-10843500D02*
X16082250Y-10873500D01*
X16145750Y-7859000D02*
X16175750Y-7889000D01*
X16175750Y-7859000D02*
X16145750Y-7889000D01*
X16145750Y-13097750D02*
X16175750Y-13127750D01*
X16175750Y-13097750D02*
X16145750Y-13127750D01*
X16209250Y-7922500D02*
X16239250Y-7952500D01*
X16239250Y-7922500D02*
X16209250Y-7952500D01*
X16209250Y-9065500D02*
X16239250Y-9095500D01*
X16239250Y-9065500D02*
X16209250Y-9095500D01*
X16209250Y-12685000D02*
X16239250Y-12715000D01*
X16239250Y-12685000D02*
X16209250Y-12715000D01*
X16237363Y-9942820D02*
X16267363Y-9972820D01*
X16267363Y-9942820D02*
X16237363Y-9972820D01*
X16259800Y-10780000D02*
X16289800Y-10810000D01*
X16289800Y-10780000D02*
X16259800Y-10810000D01*
X16272750Y-10907000D02*
X16302750Y-10937000D01*
X16302750Y-10907000D02*
X16272750Y-10937000D01*
X16308286Y-13217986D02*
X16338286Y-13247986D01*
X16338286Y-13217986D02*
X16308286Y-13247986D01*
X16319879Y-9855700D02*
X16349879Y-9885700D01*
X16349879Y-9855700D02*
X16319879Y-9885700D01*
X16336250Y-9256000D02*
X16366250Y-9286000D01*
X16366250Y-9256000D02*
X16336250Y-9286000D01*
X16336250Y-9446500D02*
X16366250Y-9476500D01*
X16366250Y-9446500D02*
X16336250Y-9476500D01*
X16339800Y-11034000D02*
X16369800Y-11064000D01*
X16369800Y-11034000D02*
X16339800Y-11064000D01*
X16399750Y-8938500D02*
X16429750Y-8968500D01*
X16429750Y-8938500D02*
X16399750Y-8968500D01*
X16399750Y-9192500D02*
X16429750Y-9222500D01*
X16429750Y-9192500D02*
X16399750Y-9222500D01*
X16399750Y-9859250D02*
X16429750Y-9889250D01*
X16429750Y-9859250D02*
X16399750Y-9889250D01*
X16399750Y-10526000D02*
X16429750Y-10556000D01*
X16429750Y-10526000D02*
X16399750Y-10556000D01*
X16399750Y-11483200D02*
X16429750Y-11513200D01*
X16429750Y-11483200D02*
X16399750Y-11513200D01*
X16399750Y-12431000D02*
X16429750Y-12461000D01*
X16429750Y-12431000D02*
X16399750Y-12461000D01*
X16653750Y-11446750D02*
X16683750Y-11476750D01*
X16683750Y-11446750D02*
X16653750Y-11476750D01*
X16717250Y-5509500D02*
X16747250Y-5539500D01*
X16747250Y-5509500D02*
X16717250Y-5539500D01*
X16717250Y-7478000D02*
X16747250Y-7508000D01*
X16747250Y-7478000D02*
X16717250Y-7508000D01*
X16717250Y-7605000D02*
X16747250Y-7635000D01*
X16747250Y-7605000D02*
X16717250Y-7635000D01*
X16717250Y-12367500D02*
X16747250Y-12397500D01*
X16747250Y-12367500D02*
X16717250Y-12397500D01*
X16777200Y-9319500D02*
X16807200Y-9349500D01*
X16807200Y-9319500D02*
X16777200Y-9349500D01*
X16780750Y-7859000D02*
X16810750Y-7889000D01*
X16810750Y-7859000D02*
X16780750Y-7889000D01*
X16780750Y-8271750D02*
X16810750Y-8301750D01*
X16810750Y-8271750D02*
X16780750Y-8301750D01*
X16780750Y-8811500D02*
X16810750Y-8841500D01*
X16810750Y-8811500D02*
X16780750Y-8841500D01*
X16780750Y-10399000D02*
X16810750Y-10429000D01*
X16810750Y-10399000D02*
X16780750Y-10429000D01*
X16780750Y-10653000D02*
X16810750Y-10683000D01*
X16810750Y-10653000D02*
X16780750Y-10683000D01*
X16780750Y-11034000D02*
X16810750Y-11064000D01*
X16810750Y-11034000D02*
X16780750Y-11064000D01*
X16780750Y-11523200D02*
X16810750Y-11553200D01*
X16810750Y-11523200D02*
X16780750Y-11553200D01*
X16780750Y-12113500D02*
X16810750Y-12143500D01*
X16810750Y-12113500D02*
X16780750Y-12143500D01*
X16780750Y-12240500D02*
X16810750Y-12270500D01*
X16810750Y-12240500D02*
X16780750Y-12270500D01*
X16780750Y-12494500D02*
X16810750Y-12524500D01*
X16810750Y-12494500D02*
X16780750Y-12524500D01*
X16784300Y-8191879D02*
X16814300Y-8221879D01*
X16814300Y-8191879D02*
X16784300Y-8221879D01*
X16844250Y-7224000D02*
X16874250Y-7254000D01*
X16874250Y-7224000D02*
X16844250Y-7254000D01*
X16844250Y-11583150D02*
X16874250Y-11613150D01*
X16874250Y-11583150D02*
X16844250Y-11613150D01*
X16844250Y-11986500D02*
X16874250Y-12016500D01*
X16874250Y-11986500D02*
X16844250Y-12016500D01*
X16876000Y-9383000D02*
X16906000Y-9413000D01*
X16906000Y-9383000D02*
X16876000Y-9413000D01*
X16898860Y-9065500D02*
X16928860Y-9095500D01*
X16928860Y-9065500D02*
X16898860Y-9095500D01*
X16907750Y-7351000D02*
X16937750Y-7381000D01*
X16937750Y-7351000D02*
X16907750Y-7381000D01*
X16907750Y-7986000D02*
X16937750Y-8016000D01*
X16937750Y-7986000D02*
X16907750Y-8016000D01*
X16907750Y-11161000D02*
X16937750Y-11191000D01*
X16937750Y-11161000D02*
X16907750Y-11191000D01*
X16907750Y-11383250D02*
X16937750Y-11413250D01*
X16937750Y-11383250D02*
X16907750Y-11413250D01*
X16907750Y-12113500D02*
X16937750Y-12143500D01*
X16937750Y-12113500D02*
X16907750Y-12143500D01*
X16907750Y-12748500D02*
X16937750Y-12778500D01*
X16937750Y-12748500D02*
X16907750Y-12778500D01*
X17073000Y-7128750D02*
X17103000Y-7158750D01*
X17103000Y-7128750D02*
X17073000Y-7158750D01*
X17073000Y-8716250D02*
X17103000Y-8746250D01*
X17103000Y-8716250D02*
X17073000Y-8746250D01*
X17073000Y-10303750D02*
X17103000Y-10333750D01*
X17103000Y-10303750D02*
X17073000Y-10333750D01*
X17073000Y-11891250D02*
X17103000Y-11921250D01*
X17103000Y-11891250D02*
X17073000Y-11921250D01*
X17125050Y-5636500D02*
X17155050Y-5666500D01*
X17155050Y-5636500D02*
X17125050Y-5666500D01*
X17225250Y-7351000D02*
X17255250Y-7381000D01*
X17255250Y-7351000D02*
X17225250Y-7381000D01*
X17225250Y-12621500D02*
X17255250Y-12651500D01*
X17255250Y-12621500D02*
X17225250Y-12651500D01*
X17272424Y-13098663D02*
X17302424Y-13128663D01*
X17302424Y-13098663D02*
X17272424Y-13128663D01*
X17288750Y-7478000D02*
X17318750Y-7508000D01*
X17318750Y-7478000D02*
X17288750Y-7508000D01*
X17288750Y-9065500D02*
X17318750Y-9095500D01*
X17318750Y-9065500D02*
X17288750Y-9095500D01*
X17288750Y-9573500D02*
X17318750Y-9603500D01*
X17318750Y-9573500D02*
X17288750Y-9603500D01*
X17288750Y-9795750D02*
X17318750Y-9825750D01*
X17318750Y-9795750D02*
X17288750Y-9825750D01*
X17288750Y-9919200D02*
X17318750Y-9949200D01*
X17318750Y-9919200D02*
X17288750Y-9949200D01*
X17288750Y-10526000D02*
X17318750Y-10556000D01*
X17318750Y-10526000D02*
X17288750Y-10556000D01*
X17288750Y-12240500D02*
X17318750Y-12270500D01*
X17318750Y-12240500D02*
X17288750Y-12270500D01*
X17288750Y-12367500D02*
X17318750Y-12397500D01*
X17318750Y-12367500D02*
X17288750Y-12397500D01*
X17288800Y-11451450D02*
X17318800Y-11481450D01*
X17318800Y-11451450D02*
X17288800Y-11481450D01*
X17295250Y-5033250D02*
X17325250Y-5063250D01*
X17325250Y-5033250D02*
X17295250Y-5063250D01*
X17352250Y-7732000D02*
X17382250Y-7762000D01*
X17382250Y-7732000D02*
X17352250Y-7762000D01*
X17352250Y-9319500D02*
X17382250Y-9349500D01*
X17382250Y-9319500D02*
X17352250Y-9349500D01*
X17352250Y-13094200D02*
X17382250Y-13124200D01*
X17382250Y-13094200D02*
X17352250Y-13124200D01*
X17352250Y-13174150D02*
X17382250Y-13204150D01*
X17382250Y-13174150D02*
X17352250Y-13204150D01*
X17415750Y-7859000D02*
X17445750Y-7889000D01*
X17445750Y-7859000D02*
X17415750Y-7889000D01*
X17415750Y-9922750D02*
X17445750Y-9952750D01*
X17445750Y-9922750D02*
X17415750Y-9952750D01*
X17415750Y-10653000D02*
X17445750Y-10683000D01*
X17445750Y-10653000D02*
X17415750Y-10683000D01*
X17479250Y-8240000D02*
X17509250Y-8270000D01*
X17509250Y-8240000D02*
X17479250Y-8270000D01*
X17479250Y-8938500D02*
X17509250Y-8968500D01*
X17509250Y-8938500D02*
X17479250Y-8968500D01*
X17606250Y-9224250D02*
X17636250Y-9254250D01*
X17636250Y-9224250D02*
X17606250Y-9254250D01*
X17606250Y-12240500D02*
X17636250Y-12270500D01*
X17636250Y-12240500D02*
X17606250Y-12270500D01*
X17606250Y-12558000D02*
X17636250Y-12588000D01*
X17636250Y-12558000D02*
X17606250Y-12588000D01*
X17606250Y-13174200D02*
X17636250Y-13204200D01*
X17636250Y-13174200D02*
X17606250Y-13204200D01*
X17669750Y-7732000D02*
X17699750Y-7762000D01*
X17699750Y-7732000D02*
X17669750Y-7762000D01*
X17669750Y-8811500D02*
X17699750Y-8841500D01*
X17699750Y-8811500D02*
X17669750Y-8841500D01*
X17669750Y-9319500D02*
X17699750Y-9349500D01*
X17699750Y-9319500D02*
X17669750Y-9349500D01*
X17669750Y-9446500D02*
X17699750Y-9476500D01*
X17699750Y-9446500D02*
X17669750Y-9476500D01*
X17669750Y-12113500D02*
X17699750Y-12143500D01*
X17699750Y-12113500D02*
X17669750Y-12143500D01*
X17729293Y-13221200D02*
X17759293Y-13251200D01*
X17759293Y-13221200D02*
X17729293Y-13251200D01*
X17796750Y-5382500D02*
X17826750Y-5412500D01*
X17826750Y-5382500D02*
X17796750Y-5412500D01*
X17860250Y-13134200D02*
X17890250Y-13164200D01*
X17890250Y-13134200D02*
X17860250Y-13164200D01*
X17955500Y-9959200D02*
X17985500Y-9989200D01*
X17985500Y-9959200D02*
X17955500Y-9989200D01*
X17955500Y-10399000D02*
X17985500Y-10429000D01*
X17985500Y-10399000D02*
X17955500Y-10429000D01*
X17955500Y-11034000D02*
X17985500Y-11064000D01*
X17985500Y-11034000D02*
X17955500Y-11064000D01*
X17955500Y-11573750D02*
X17985500Y-11603750D01*
X17985500Y-11573750D02*
X17955500Y-11603750D01*
X17987250Y-7224000D02*
X18017250Y-7254000D01*
X18017250Y-7224000D02*
X17987250Y-7254000D01*
X17987250Y-7605000D02*
X18017250Y-7635000D01*
X18017250Y-7605000D02*
X17987250Y-7635000D01*
X17987250Y-8938500D02*
X18017250Y-8968500D01*
X18017250Y-8938500D02*
X17987250Y-8968500D01*
X17987250Y-9192500D02*
X18017250Y-9222500D01*
X18017250Y-9192500D02*
X17987250Y-9222500D01*
X17987250Y-9795750D02*
X18017250Y-9825750D01*
X18017250Y-9795750D02*
X17987250Y-9825750D01*
X17987250Y-12113500D02*
X18017250Y-12143500D01*
X18017250Y-12113500D02*
X17987250Y-12143500D01*
X17987250Y-12621500D02*
X18017250Y-12651500D01*
X18017250Y-12621500D02*
X17987250Y-12651500D01*
X18019000Y-13221250D02*
X18049000Y-13251250D01*
X18049000Y-13221250D02*
X18019000Y-13251250D01*
X18050750Y-5509500D02*
X18080750Y-5539500D01*
X18080750Y-5509500D02*
X18050750Y-5539500D01*
X18050750Y-7478000D02*
X18080750Y-7508000D01*
X18080750Y-7478000D02*
X18050750Y-7508000D01*
X18050750Y-8875000D02*
X18080750Y-8905000D01*
X18080750Y-8875000D02*
X18050750Y-8905000D01*
X18050750Y-11491450D02*
X18080750Y-11521450D01*
X18080750Y-11491450D02*
X18050750Y-11521450D01*
X18050750Y-12494500D02*
X18080750Y-12524500D01*
X18080750Y-12494500D02*
X18050750Y-12524500D01*
X18054300Y-10716500D02*
X18084300Y-10746500D01*
X18084300Y-10716500D02*
X18054300Y-10746500D01*
X18114069Y-13061300D02*
X18144069Y-13091300D01*
X18144069Y-13061300D02*
X18114069Y-13091300D01*
X18114250Y-7859000D02*
X18144250Y-7889000D01*
X18144250Y-7859000D02*
X18114250Y-7889000D01*
X18146000Y-7351000D02*
X18176000Y-7381000D01*
X18176000Y-7351000D02*
X18146000Y-7381000D01*
X18146000Y-7732000D02*
X18176000Y-7762000D01*
X18176000Y-7732000D02*
X18146000Y-7762000D01*
X18177750Y-8176500D02*
X18207750Y-8206500D01*
X18207750Y-8176500D02*
X18177750Y-8206500D01*
X18177750Y-9065500D02*
X18207750Y-9095500D01*
X18207750Y-9065500D02*
X18177750Y-9095500D01*
X18177750Y-9446500D02*
X18207750Y-9476500D01*
X18207750Y-9446500D02*
X18177750Y-9476500D01*
X18177750Y-10526000D02*
X18207750Y-10556000D01*
X18207750Y-10526000D02*
X18177750Y-10556000D01*
X18177750Y-10907000D02*
X18207750Y-10937000D01*
X18207750Y-10907000D02*
X18177750Y-10937000D01*
X18177750Y-11161000D02*
X18207750Y-11191000D01*
X18207750Y-11161000D02*
X18177750Y-11191000D01*
X18177750Y-11986500D02*
X18207750Y-12016500D01*
X18207750Y-11986500D02*
X18177750Y-12016500D01*
X18177750Y-12621500D02*
X18207750Y-12651500D01*
X18207750Y-12621500D02*
X18177750Y-12651500D01*
X18304750Y-5636500D02*
X18334750Y-5666500D01*
X18334750Y-5636500D02*
X18304750Y-5666500D01*
X18311250Y-11891250D02*
X18341250Y-11921250D01*
X18341250Y-11891250D02*
X18311250Y-11921250D01*
X18336500Y-7128750D02*
X18366500Y-7158750D01*
X18366500Y-7128750D02*
X18336500Y-7158750D01*
X18343000Y-8716250D02*
X18373000Y-8746250D01*
X18373000Y-8716250D02*
X18343000Y-8746250D01*
X18343000Y-10303750D02*
X18373000Y-10333750D01*
X18373000Y-10303750D02*
X18343000Y-10333750D01*
X18495250Y-12113500D02*
X18525250Y-12143500D01*
X18525250Y-12113500D02*
X18495250Y-12143500D01*
X18495250Y-12494500D02*
X18525250Y-12524500D01*
X18525250Y-12494500D02*
X18495250Y-12524500D01*
X18495250Y-13161250D02*
X18525250Y-13191250D01*
X18525250Y-13161250D02*
X18495250Y-13191250D01*
X18527000Y-7478000D02*
X18557000Y-7508000D01*
X18557000Y-7478000D02*
X18527000Y-7508000D01*
X18527000Y-9573500D02*
X18557000Y-9603500D01*
X18557000Y-9573500D02*
X18527000Y-9603500D01*
X18527000Y-9859250D02*
X18557000Y-9889250D01*
X18557000Y-9859250D02*
X18527000Y-9889250D01*
X18558750Y-5763500D02*
X18588750Y-5793500D01*
X18588750Y-5763500D02*
X18558750Y-5793500D01*
X18590500Y-7986000D02*
X18620500Y-8016000D01*
X18620500Y-7986000D02*
X18590500Y-8016000D01*
X18590500Y-8240000D02*
X18620500Y-8270000D01*
X18620500Y-8240000D02*
X18590500Y-8270000D01*
X18590500Y-9256000D02*
X18620500Y-9286000D01*
X18620500Y-9256000D02*
X18590500Y-9286000D01*
X18615200Y-13221200D02*
X18645200Y-13251200D01*
X18645200Y-13221200D02*
X18615200Y-13251200D01*
X18622250Y-9859250D02*
X18652250Y-9889250D01*
X18652250Y-9859250D02*
X18622250Y-9889250D01*
X18622250Y-12050000D02*
X18652250Y-12080000D01*
X18652250Y-12050000D02*
X18622250Y-12080000D01*
X18622250Y-12748500D02*
X18652250Y-12778500D01*
X18652250Y-12748500D02*
X18622250Y-12778500D01*
X18654000Y-7351000D02*
X18684000Y-7381000D01*
X18684000Y-7351000D02*
X18654000Y-7381000D01*
X18654000Y-8303500D02*
X18684000Y-8333500D01*
X18684000Y-8303500D02*
X18654000Y-8333500D01*
X18654000Y-10526000D02*
X18684000Y-10556000D01*
X18684000Y-10526000D02*
X18654000Y-10556000D01*
X18654000Y-11034000D02*
X18684000Y-11064000D01*
X18684000Y-11034000D02*
X18654000Y-11064000D01*
X18717500Y-8208250D02*
X18747500Y-8238250D01*
X18747500Y-8208250D02*
X18717500Y-8238250D01*
X18717500Y-11491450D02*
X18747500Y-11521450D01*
X18747500Y-11491450D02*
X18717500Y-11521450D01*
X18812750Y-5890500D02*
X18842750Y-5920500D01*
X18842750Y-5890500D02*
X18812750Y-5920500D01*
X18876250Y-13101300D02*
X18906250Y-13131300D01*
X18906250Y-13101300D02*
X18876250Y-13131300D01*
X19066750Y-6017500D02*
X19096750Y-6047500D01*
X19096750Y-6017500D02*
X19066750Y-6047500D01*
X19130250Y-13061300D02*
X19160250Y-13091300D01*
X19160250Y-13061300D02*
X19130250Y-13091300D01*
X19162000Y-11451450D02*
X19192000Y-11481450D01*
X19192000Y-11451450D02*
X19162000Y-11481450D01*
X19221950Y-9959200D02*
X19251950Y-9989200D01*
X19251950Y-9959200D02*
X19221950Y-9989200D01*
X19225500Y-10526000D02*
X19255500Y-10556000D01*
X19255500Y-10526000D02*
X19225500Y-10556000D01*
X19257250Y-5319000D02*
X19287250Y-5349000D01*
X19287250Y-5319000D02*
X19257250Y-5349000D01*
X19257250Y-7605000D02*
X19287250Y-7635000D01*
X19287250Y-7605000D02*
X19257250Y-7635000D01*
X19257250Y-8811500D02*
X19287250Y-8841500D01*
X19287250Y-8811500D02*
X19257250Y-8841500D01*
X19257250Y-9319500D02*
X19287250Y-9349500D01*
X19287250Y-9319500D02*
X19257250Y-9349500D01*
X19257250Y-12240500D02*
X19287250Y-12270500D01*
X19287250Y-12240500D02*
X19257250Y-12270500D01*
X19320750Y-6144500D02*
X19350750Y-6174500D01*
X19350750Y-6144500D02*
X19320750Y-6174500D01*
X19320750Y-7224000D02*
X19350750Y-7254000D01*
X19350750Y-7224000D02*
X19320750Y-7254000D01*
X19320750Y-8367000D02*
X19350750Y-8397000D01*
X19350750Y-8367000D02*
X19320750Y-8397000D01*
X19320750Y-8938500D02*
X19350750Y-8968500D01*
X19350750Y-8938500D02*
X19320750Y-8968500D01*
X19320750Y-9192500D02*
X19350750Y-9222500D01*
X19350750Y-9192500D02*
X19320750Y-9222500D01*
X19320750Y-10907000D02*
X19350750Y-10937000D01*
X19350750Y-10907000D02*
X19320750Y-10937000D01*
X19320750Y-12621500D02*
X19350750Y-12651500D01*
X19350750Y-12621500D02*
X19320750Y-12651500D01*
X19384250Y-10462500D02*
X19414250Y-10492500D01*
X19414250Y-10462500D02*
X19384250Y-10492500D01*
X19409500Y-7351000D02*
X19439500Y-7381000D01*
X19439500Y-7351000D02*
X19409500Y-7381000D01*
X19409500Y-7986000D02*
X19439500Y-8016000D01*
X19439500Y-7986000D02*
X19409500Y-8016000D01*
X19416000Y-8240000D02*
X19446000Y-8270000D01*
X19446000Y-8240000D02*
X19416000Y-8270000D01*
X19416000Y-9065500D02*
X19446000Y-9095500D01*
X19446000Y-9065500D02*
X19416000Y-9095500D01*
X19447750Y-10399000D02*
X19477750Y-10429000D01*
X19477750Y-10399000D02*
X19447750Y-10429000D01*
X19447750Y-10653000D02*
X19477750Y-10683000D01*
X19477750Y-10653000D02*
X19447750Y-10683000D01*
X19447750Y-11030450D02*
X19477750Y-11060450D01*
X19477750Y-11030450D02*
X19447750Y-11060450D01*
X19447750Y-11986500D02*
X19477750Y-12016500D01*
X19477750Y-11986500D02*
X19447750Y-12016500D01*
X19447750Y-12240500D02*
X19477750Y-12270500D01*
X19477750Y-12240500D02*
X19447750Y-12270500D01*
X19447750Y-12367500D02*
X19477750Y-12397500D01*
X19477750Y-12367500D02*
X19447750Y-12397500D01*
X19447750Y-12621500D02*
X19477750Y-12651500D01*
X19477750Y-12621500D02*
X19447750Y-12651500D01*
X19574750Y-6271500D02*
X19604750Y-6301500D01*
X19604750Y-6271500D02*
X19574750Y-6301500D01*
X19600000Y-7128750D02*
X19630000Y-7158750D01*
X19630000Y-7128750D02*
X19600000Y-7158750D01*
X19613000Y-8716250D02*
X19643000Y-8746250D01*
X19643000Y-8716250D02*
X19613000Y-8746250D01*
X19613000Y-10303750D02*
X19643000Y-10333750D01*
X19643000Y-10303750D02*
X19613000Y-10333750D01*
X19613000Y-11891250D02*
X19643000Y-11921250D01*
X19643000Y-11891250D02*
X19613000Y-11921250D01*
X19765250Y-5446000D02*
X19795250Y-5476000D01*
X19795250Y-5446000D02*
X19765250Y-5476000D01*
X19765250Y-7351000D02*
X19795250Y-7381000D01*
X19795250Y-7351000D02*
X19765250Y-7381000D01*
X19765250Y-7478000D02*
X19795250Y-7508000D01*
X19795250Y-7478000D02*
X19765250Y-7508000D01*
X19765250Y-9065500D02*
X19795250Y-9095500D01*
X19795250Y-9065500D02*
X19765250Y-9095500D01*
X19765250Y-9573500D02*
X19795250Y-9603500D01*
X19795250Y-9573500D02*
X19765250Y-9603500D01*
X19765250Y-9795750D02*
X19795250Y-9825750D01*
X19795250Y-9795750D02*
X19765250Y-9825750D01*
X19765250Y-10780000D02*
X19795250Y-10810000D01*
X19795250Y-10780000D02*
X19765250Y-10810000D01*
X19765250Y-12748500D02*
X19795250Y-12778500D01*
X19795250Y-12748500D02*
X19765250Y-12778500D01*
X19828750Y-7732000D02*
X19858750Y-7762000D01*
X19858750Y-7732000D02*
X19828750Y-7762000D01*
X19828750Y-9319500D02*
X19858750Y-9349500D01*
X19858750Y-9319500D02*
X19828750Y-9349500D01*
X19828750Y-11161000D02*
X19858750Y-11191000D01*
X19858750Y-11161000D02*
X19828750Y-11191000D01*
X19828750Y-11415000D02*
X19858750Y-11445000D01*
X19858750Y-11415000D02*
X19828750Y-11445000D01*
X19828750Y-12367500D02*
X19858750Y-12397500D01*
X19858750Y-12367500D02*
X19828750Y-12397500D01*
X19828750Y-13161250D02*
X19858750Y-13191250D01*
X19858750Y-13161250D02*
X19828750Y-13191250D01*
X19886198Y-13216853D02*
X19916198Y-13246853D01*
X19916198Y-13216853D02*
X19886198Y-13246853D01*
X19892250Y-12113500D02*
X19922250Y-12143500D01*
X19922250Y-12113500D02*
X19892250Y-12143500D01*
X19908700Y-11415000D02*
X19938700Y-11445000D01*
X19938700Y-11415000D02*
X19908700Y-11445000D01*
X19955750Y-12558000D02*
X19985750Y-12588000D01*
X19985750Y-12558000D02*
X19955750Y-12588000D01*
X19955750Y-13256500D02*
X19985750Y-13286500D01*
X19985750Y-13256500D02*
X19955750Y-13286500D01*
X20019250Y-7859000D02*
X20049250Y-7889000D01*
X20049250Y-7859000D02*
X20019250Y-7889000D01*
X20019250Y-8163550D02*
X20049250Y-8193550D01*
X20049250Y-8163550D02*
X20019250Y-8193550D01*
X20019250Y-8938500D02*
X20049250Y-8968500D01*
X20049250Y-8938500D02*
X20019250Y-8968500D01*
X20082750Y-7541500D02*
X20112750Y-7571500D01*
X20112750Y-7541500D02*
X20082750Y-7571500D01*
X20082750Y-10399000D02*
X20112750Y-10429000D01*
X20112750Y-10399000D02*
X20082750Y-10429000D01*
X20082750Y-10653000D02*
X20112750Y-10683000D01*
X20112750Y-10653000D02*
X20082750Y-10683000D01*
X20082750Y-10780000D02*
X20112750Y-10810000D01*
X20112750Y-10780000D02*
X20082750Y-10810000D01*
X20082750Y-11097500D02*
X20112750Y-11127500D01*
X20112750Y-11097500D02*
X20082750Y-11127500D01*
X20082750Y-12494500D02*
X20112750Y-12524500D01*
X20112750Y-12494500D02*
X20082750Y-12524500D01*
X20082750Y-13097750D02*
X20112750Y-13127750D01*
X20112750Y-13097750D02*
X20082750Y-13127750D01*
X20146250Y-7414500D02*
X20176250Y-7444500D01*
X20176250Y-7414500D02*
X20146250Y-7444500D01*
X20146250Y-8875000D02*
X20176250Y-8905000D01*
X20176250Y-8875000D02*
X20146250Y-8905000D01*
X20146250Y-11034000D02*
X20176250Y-11064000D01*
X20176250Y-11034000D02*
X20146250Y-11064000D01*
X20146250Y-11986500D02*
X20176250Y-12016500D01*
X20176250Y-11986500D02*
X20146250Y-12016500D01*
X20146250Y-12748500D02*
X20176250Y-12778500D01*
X20176250Y-12748500D02*
X20146250Y-12778500D01*
X20209750Y-7732000D02*
X20239750Y-7762000D01*
X20239750Y-7732000D02*
X20209750Y-7762000D01*
X20209750Y-8811500D02*
X20239750Y-8841500D01*
X20239750Y-8811500D02*
X20209750Y-8841500D01*
X20209750Y-9319500D02*
X20239750Y-9349500D01*
X20239750Y-9319500D02*
X20209750Y-9349500D01*
X20209750Y-10653000D02*
X20239750Y-10683000D01*
X20239750Y-10653000D02*
X20209750Y-10683000D01*
X20209750Y-10907000D02*
X20239750Y-10937000D01*
X20239750Y-10907000D02*
X20209750Y-10937000D01*
X20209750Y-11415000D02*
X20239750Y-11445000D01*
X20239750Y-11415000D02*
X20209750Y-11445000D01*
X20527250Y-6811250D02*
X20557250Y-6841250D01*
X20557250Y-6811250D02*
X20527250Y-6841250D01*
X20527250Y-7605000D02*
X20557250Y-7635000D01*
X20557250Y-7605000D02*
X20527250Y-7635000D01*
X20527250Y-8938500D02*
X20557250Y-8968500D01*
X20557250Y-8938500D02*
X20527250Y-8968500D01*
X20527250Y-9192500D02*
X20557250Y-9222500D01*
X20557250Y-9192500D02*
X20527250Y-9222500D01*
X20527250Y-9959200D02*
X20557250Y-9989200D01*
X20557250Y-9959200D02*
X20527250Y-9989200D01*
X20527250Y-12621500D02*
X20557250Y-12651500D01*
X20557250Y-12621500D02*
X20527250Y-12651500D01*
X20587200Y-7922500D02*
X20617200Y-7952500D01*
X20617200Y-7922500D02*
X20587200Y-7952500D01*
X20590750Y-7351000D02*
X20620750Y-7381000D01*
X20620750Y-7351000D02*
X20590750Y-7381000D01*
X20590750Y-7732000D02*
X20620750Y-7762000D01*
X20620750Y-7732000D02*
X20590750Y-7762000D01*
X20654250Y-7224000D02*
X20684250Y-7254000D01*
X20684250Y-7224000D02*
X20654250Y-7254000D01*
X20654250Y-12113500D02*
X20684250Y-12143500D01*
X20684250Y-12113500D02*
X20654250Y-12143500D01*
X20654250Y-13161250D02*
X20684250Y-13191250D01*
X20684250Y-13161250D02*
X20654250Y-13191250D01*
X20657800Y-9069050D02*
X20687800Y-9099050D01*
X20687800Y-9069050D02*
X20657800Y-9099050D01*
X20717750Y-7478000D02*
X20747750Y-7508000D01*
X20747750Y-7478000D02*
X20717750Y-7508000D01*
X20717750Y-8938500D02*
X20747750Y-8968500D01*
X20747750Y-8938500D02*
X20717750Y-8968500D01*
X20717750Y-9919200D02*
X20747750Y-9949200D01*
X20747750Y-9919200D02*
X20717750Y-9949200D01*
X20717750Y-10653000D02*
X20747750Y-10683000D01*
X20747750Y-10653000D02*
X20717750Y-10683000D01*
X20717750Y-11986500D02*
X20747750Y-12016500D01*
X20747750Y-11986500D02*
X20717750Y-12016500D01*
X20717750Y-12621500D02*
X20747750Y-12651500D01*
X20747750Y-12621500D02*
X20717750Y-12651500D01*
X20870000Y-7128750D02*
X20900000Y-7158750D01*
X20900000Y-7128750D02*
X20870000Y-7158750D01*
X20883000Y-8716250D02*
X20913000Y-8746250D01*
X20913000Y-8716250D02*
X20883000Y-8746250D01*
X20883000Y-10303750D02*
X20913000Y-10333750D01*
X20913000Y-10303750D02*
X20883000Y-10333750D01*
X20883000Y-11891250D02*
X20913000Y-11921250D01*
X20913000Y-11891250D02*
X20883000Y-11921250D01*
X21035250Y-7478000D02*
X21065250Y-7508000D01*
X21065250Y-7478000D02*
X21035250Y-7508000D01*
X21035250Y-9129000D02*
X21065250Y-9159000D01*
X21065250Y-9129000D02*
X21035250Y-9159000D01*
X21035250Y-9573500D02*
X21065250Y-9603500D01*
X21065250Y-9573500D02*
X21035250Y-9603500D01*
X21035250Y-10526000D02*
X21065250Y-10556000D01*
X21065250Y-10526000D02*
X21035250Y-10556000D01*
X21035250Y-11351500D02*
X21065250Y-11381500D01*
X21065250Y-11351500D02*
X21035250Y-11381500D01*
X21098750Y-7986000D02*
X21128750Y-8016000D01*
X21128750Y-7986000D02*
X21098750Y-8016000D01*
X21098750Y-8144750D02*
X21128750Y-8174750D01*
X21128750Y-8144750D02*
X21098750Y-8174750D01*
X21098750Y-8367000D02*
X21128750Y-8397000D01*
X21128750Y-8367000D02*
X21098750Y-8397000D01*
X21098750Y-9319500D02*
X21128750Y-9349500D01*
X21128750Y-9319500D02*
X21098750Y-9349500D01*
X21098750Y-9859250D02*
X21128750Y-9889250D01*
X21128750Y-9859250D02*
X21098750Y-9889250D01*
X21098750Y-11161000D02*
X21128750Y-11191000D01*
X21128750Y-11161000D02*
X21098750Y-11191000D01*
X21162250Y-7859000D02*
X21192250Y-7889000D01*
X21192250Y-7859000D02*
X21162250Y-7889000D01*
X21162250Y-8303500D02*
X21192250Y-8333500D01*
X21192250Y-8303500D02*
X21162250Y-8333500D01*
X21162250Y-10780000D02*
X21192250Y-10810000D01*
X21192250Y-10780000D02*
X21162250Y-10810000D01*
X21162250Y-10859950D02*
X21192250Y-10889950D01*
X21192250Y-10859950D02*
X21162250Y-10889950D01*
X21162250Y-12367500D02*
X21192250Y-12397500D01*
X21192250Y-12367500D02*
X21162250Y-12397500D01*
X21170260Y-8180505D02*
X21200260Y-8210505D01*
X21200260Y-8180505D02*
X21170260Y-8210505D01*
X21225750Y-8779750D02*
X21255750Y-8809750D01*
X21255750Y-8779750D02*
X21225750Y-8809750D01*
X21225750Y-9446500D02*
X21255750Y-9476500D01*
X21255750Y-9446500D02*
X21225750Y-9476500D01*
X21225750Y-10462500D02*
X21255750Y-10492500D01*
X21255750Y-10462500D02*
X21225750Y-10492500D01*
X21225750Y-12050000D02*
X21255750Y-12080000D01*
X21255750Y-12050000D02*
X21225750Y-12080000D01*
X21225750Y-12621500D02*
X21255750Y-12651500D01*
X21255750Y-12621500D02*
X21225750Y-12651500D01*
X21289250Y-9033750D02*
X21319250Y-9063750D01*
X21319250Y-9033750D02*
X21289250Y-9063750D01*
X21349200Y-9287750D02*
X21379200Y-9317750D01*
X21379200Y-9287750D02*
X21349200Y-9317750D01*
X21384500Y-7795500D02*
X21414500Y-7825500D01*
X21414500Y-7795500D02*
X21384500Y-7825500D01*
X21448000Y-5192000D02*
X21478000Y-5222000D01*
X21478000Y-5192000D02*
X21448000Y-5222000D01*
X21448000Y-8017750D02*
X21478000Y-8047750D01*
X21478000Y-8017750D02*
X21448000Y-8047750D01*
X21511500Y-7732000D02*
X21541500Y-7762000D01*
X21541500Y-7732000D02*
X21511500Y-7762000D01*
X21511500Y-8525750D02*
X21541500Y-8555750D01*
X21541500Y-8525750D02*
X21511500Y-8555750D01*
D13*
X10749750Y-7524750D02*
G75*
G03*
X10749750Y-7524750I-50000J0D01*
G01*
X10749750Y-7778750D02*
G75*
G03*
X10749750Y-7778750I-50000J0D01*
G01*
X10749750Y-8032750D02*
G75*
G03*
X10749750Y-8032750I-50000J0D01*
G01*
X10749750Y-8286750D02*
G75*
G03*
X10749750Y-8286750I-50000J0D01*
G01*
X10749750Y-8540750D02*
G75*
G03*
X10749750Y-8540750I-50000J0D01*
G01*
X10749750Y-8794750D02*
G75*
G03*
X10749750Y-8794750I-50000J0D01*
G01*
X10749750Y-9048750D02*
G75*
G03*
X10749750Y-9048750I-50000J0D01*
G01*
X10749750Y-9302750D02*
G75*
G03*
X10749750Y-9302750I-50000J0D01*
G01*
X13764500Y-13620750D02*
G75*
G03*
X13764500Y-13620750I-50000J0D01*
G01*
X14018500Y-13620750D02*
G75*
G03*
X14018500Y-13620750I-50000J0D01*
G01*
X14272500Y-13620750D02*
G75*
G03*
X14272500Y-13620750I-50000J0D01*
G01*
X14526500Y-13620750D02*
G75*
G03*
X14526500Y-13620750I-50000J0D01*
G01*
X14780500Y-13620750D02*
G75*
G03*
X14780500Y-13620750I-50000J0D01*
G01*
X15034500Y-13620750D02*
G75*
G03*
X15034500Y-13620750I-50000J0D01*
G01*
X15288500Y-13620750D02*
G75*
G03*
X15288500Y-13620750I-50000J0D01*
G01*
X15542500Y-13620750D02*
G75*
G03*
X15542500Y-13620750I-50000J0D01*
G01*
X17417250Y-13620750D02*
G75*
G03*
X17417250Y-13620750I-50000J0D01*
G01*
X17671250Y-13620750D02*
G75*
G03*
X17671250Y-13620750I-50000J0D01*
G01*
X17863250Y-4826000D02*
G75*
G03*
X17863250Y-4826000I-50000J0D01*
G01*
X17925250Y-13620750D02*
G75*
G03*
X17925250Y-13620750I-50000J0D01*
G01*
X18117250Y-4826000D02*
G75*
G03*
X18117250Y-4826000I-50000J0D01*
G01*
X18179250Y-13620750D02*
G75*
G03*
X18179250Y-13620750I-50000J0D01*
G01*
X18371250Y-4826000D02*
G75*
G03*
X18371250Y-4826000I-50000J0D01*
G01*
X18433250Y-13620750D02*
G75*
G03*
X18433250Y-13620750I-50000J0D01*
G01*
X18625250Y-4826000D02*
G75*
G03*
X18625250Y-4826000I-50000J0D01*
G01*
X18687250Y-13620750D02*
G75*
G03*
X18687250Y-13620750I-50000J0D01*
G01*
X18879250Y-4826000D02*
G75*
G03*
X18879250Y-4826000I-50000J0D01*
G01*
X18941250Y-13620750D02*
G75*
G03*
X18941250Y-13620750I-50000J0D01*
G01*
X19133250Y-4826000D02*
G75*
G03*
X19133250Y-4826000I-50000J0D01*
G01*
X19195250Y-13620750D02*
G75*
G03*
X19195250Y-13620750I-50000J0D01*
G01*
X19387250Y-4826000D02*
G75*
G03*
X19387250Y-4826000I-50000J0D01*
G01*
X19641250Y-4826000D02*
G75*
G03*
X19641250Y-4826000I-50000J0D01*
G01*
X21767000Y-7523250D02*
G75*
G03*
X21767000Y-7523250I-50000J0D01*
G01*
X21767000Y-7777250D02*
G75*
G03*
X21767000Y-7777250I-50000J0D01*
G01*
X21767000Y-8031250D02*
G75*
G03*
X21767000Y-8031250I-50000J0D01*
G01*
X21767000Y-8285250D02*
G75*
G03*
X21767000Y-8285250I-50000J0D01*
G01*
X21767000Y-8539250D02*
G75*
G03*
X21767000Y-8539250I-50000J0D01*
G01*
X21767000Y-8793250D02*
G75*
G03*
X21767000Y-8793250I-50000J0D01*
G01*
X21767000Y-9047250D02*
G75*
G03*
X21767000Y-9047250I-50000J0D01*
G01*
X21767000Y-9301250D02*
G75*
G03*
X21767000Y-9301250I-50000J0D01*
G01*
D11*
X10095119Y-14285476D02*
X10095119Y-14085476D01*
X10142738Y-14085476D01*
X10171310Y-14095000D01*
X10190357Y-14114048D01*
X10199881Y-14133095D01*
X10209405Y-14171190D01*
X10209405Y-14199762D01*
X10199881Y-14237857D01*
X10190357Y-14256905D01*
X10171310Y-14275952D01*
X10142738Y-14285476D01*
X10095119Y-14285476D01*
X10295119Y-14285476D02*
X10295119Y-14152143D01*
X10295119Y-14190238D02*
X10304643Y-14171190D01*
X10314167Y-14161667D01*
X10333214Y-14152143D01*
X10352262Y-14152143D01*
X10418929Y-14285476D02*
X10418929Y-14152143D01*
X10418929Y-14085476D02*
X10409405Y-14095000D01*
X10418929Y-14104524D01*
X10428452Y-14095000D01*
X10418929Y-14085476D01*
X10418929Y-14104524D01*
X10542738Y-14285476D02*
X10523690Y-14275952D01*
X10514167Y-14256905D01*
X10514167Y-14085476D01*
X10647500Y-14285476D02*
X10628452Y-14275952D01*
X10618929Y-14256905D01*
X10618929Y-14085476D01*
X10876071Y-14285476D02*
X10876071Y-14085476D01*
X10942738Y-14228333D01*
X11009405Y-14085476D01*
X11009405Y-14285476D01*
X11190357Y-14285476D02*
X11190357Y-14180714D01*
X11180833Y-14161667D01*
X11161786Y-14152143D01*
X11123690Y-14152143D01*
X11104643Y-14161667D01*
X11190357Y-14275952D02*
X11171310Y-14285476D01*
X11123690Y-14285476D01*
X11104643Y-14275952D01*
X11095119Y-14256905D01*
X11095119Y-14237857D01*
X11104643Y-14218809D01*
X11123690Y-14209286D01*
X11171310Y-14209286D01*
X11190357Y-14199762D01*
X11285595Y-14152143D02*
X11285595Y-14352143D01*
X11285595Y-14161667D02*
X11304643Y-14152143D01*
X11342738Y-14152143D01*
X11361786Y-14161667D01*
X11371309Y-14171190D01*
X11380833Y-14190238D01*
X11380833Y-14247381D01*
X11371309Y-14266428D01*
X11361786Y-14275952D01*
X11342738Y-14285476D01*
X11304643Y-14285476D01*
X11285595Y-14275952D01*
X11466548Y-14266428D02*
X11476071Y-14275952D01*
X11466548Y-14285476D01*
X11457024Y-14275952D01*
X11466548Y-14266428D01*
X11466548Y-14285476D01*
X11466548Y-14161667D02*
X11476071Y-14171190D01*
X11466548Y-14180714D01*
X11457024Y-14171190D01*
X11466548Y-14161667D01*
X11466548Y-14180714D01*
D12*
X9807500Y-14600000D02*
X9837500Y-14630000D01*
X9837500Y-14600000D02*
X9807500Y-14630000D01*
D11*
X10133214Y-14505476D02*
X10152262Y-14505476D01*
X10171310Y-14515000D01*
X10180833Y-14524524D01*
X10190357Y-14543571D01*
X10199881Y-14581667D01*
X10199881Y-14629286D01*
X10190357Y-14667381D01*
X10180833Y-14686428D01*
X10171310Y-14695952D01*
X10152262Y-14705476D01*
X10133214Y-14705476D01*
X10114167Y-14695952D01*
X10104643Y-14686428D01*
X10095119Y-14667381D01*
X10085595Y-14629286D01*
X10085595Y-14581667D01*
X10095119Y-14543571D01*
X10104643Y-14524524D01*
X10114167Y-14515000D01*
X10133214Y-14505476D01*
X10285595Y-14686428D02*
X10295119Y-14695952D01*
X10285595Y-14705476D01*
X10276071Y-14695952D01*
X10285595Y-14686428D01*
X10285595Y-14705476D01*
X10361786Y-14505476D02*
X10485595Y-14505476D01*
X10418929Y-14581667D01*
X10447500Y-14581667D01*
X10466548Y-14591190D01*
X10476071Y-14600714D01*
X10485595Y-14619762D01*
X10485595Y-14667381D01*
X10476071Y-14686428D01*
X10466548Y-14695952D01*
X10447500Y-14705476D01*
X10390357Y-14705476D01*
X10371310Y-14695952D01*
X10361786Y-14686428D01*
X10609405Y-14505476D02*
X10628452Y-14505476D01*
X10647500Y-14515000D01*
X10657024Y-14524524D01*
X10666548Y-14543571D01*
X10676071Y-14581667D01*
X10676071Y-14629286D01*
X10666548Y-14667381D01*
X10657024Y-14686428D01*
X10647500Y-14695952D01*
X10628452Y-14705476D01*
X10609405Y-14705476D01*
X10590357Y-14695952D01*
X10580833Y-14686428D01*
X10571310Y-14667381D01*
X10561786Y-14629286D01*
X10561786Y-14581667D01*
X10571310Y-14543571D01*
X10580833Y-14524524D01*
X10590357Y-14515000D01*
X10609405Y-14505476D01*
X10799881Y-14505476D02*
X10818929Y-14505476D01*
X10837976Y-14515000D01*
X10847500Y-14524524D01*
X10857024Y-14543571D01*
X10866548Y-14581667D01*
X10866548Y-14629286D01*
X10857024Y-14667381D01*
X10847500Y-14686428D01*
X10837976Y-14695952D01*
X10818929Y-14705476D01*
X10799881Y-14705476D01*
X10780833Y-14695952D01*
X10771310Y-14686428D01*
X10761786Y-14667381D01*
X10752262Y-14629286D01*
X10752262Y-14581667D01*
X10761786Y-14543571D01*
X10771310Y-14524524D01*
X10780833Y-14515000D01*
X10799881Y-14505476D01*
X10952262Y-14705476D02*
X10952262Y-14572143D01*
X10952262Y-14591190D02*
X10961786Y-14581667D01*
X10980833Y-14572143D01*
X11009405Y-14572143D01*
X11028452Y-14581667D01*
X11037976Y-14600714D01*
X11037976Y-14705476D01*
X11037976Y-14600714D02*
X11047500Y-14581667D01*
X11066548Y-14572143D01*
X11095119Y-14572143D01*
X11114167Y-14581667D01*
X11123690Y-14600714D01*
X11123690Y-14705476D01*
X11218928Y-14705476D02*
X11218928Y-14572143D01*
X11218928Y-14591190D02*
X11228452Y-14581667D01*
X11247500Y-14572143D01*
X11276071Y-14572143D01*
X11295119Y-14581667D01*
X11304643Y-14600714D01*
X11304643Y-14705476D01*
X11304643Y-14600714D02*
X11314167Y-14581667D01*
X11333214Y-14572143D01*
X11361786Y-14572143D01*
X11380833Y-14581667D01*
X11390357Y-14600714D01*
X11390357Y-14705476D01*
X11780833Y-14495952D02*
X11609405Y-14753095D01*
X12037976Y-14505476D02*
X12057024Y-14505476D01*
X12076071Y-14515000D01*
X12085595Y-14524524D01*
X12095119Y-14543571D01*
X12104643Y-14581667D01*
X12104643Y-14629286D01*
X12095119Y-14667381D01*
X12085595Y-14686428D01*
X12076071Y-14695952D01*
X12057024Y-14705476D01*
X12037976Y-14705476D01*
X12018928Y-14695952D01*
X12009405Y-14686428D01*
X11999881Y-14667381D01*
X11990357Y-14629286D01*
X11990357Y-14581667D01*
X11999881Y-14543571D01*
X12009405Y-14524524D01*
X12018928Y-14515000D01*
X12037976Y-14505476D01*
X12190357Y-14686428D02*
X12199881Y-14695952D01*
X12190357Y-14705476D01*
X12180833Y-14695952D01*
X12190357Y-14686428D01*
X12190357Y-14705476D01*
X12323690Y-14505476D02*
X12342738Y-14505476D01*
X12361786Y-14515000D01*
X12371309Y-14524524D01*
X12380833Y-14543571D01*
X12390357Y-14581667D01*
X12390357Y-14629286D01*
X12380833Y-14667381D01*
X12371309Y-14686428D01*
X12361786Y-14695952D01*
X12342738Y-14705476D01*
X12323690Y-14705476D01*
X12304643Y-14695952D01*
X12295119Y-14686428D01*
X12285595Y-14667381D01*
X12276071Y-14629286D01*
X12276071Y-14581667D01*
X12285595Y-14543571D01*
X12295119Y-14524524D01*
X12304643Y-14515000D01*
X12323690Y-14505476D01*
X12580833Y-14705476D02*
X12466548Y-14705476D01*
X12523690Y-14705476D02*
X12523690Y-14505476D01*
X12504643Y-14534048D01*
X12485595Y-14553095D01*
X12466548Y-14562619D01*
X12771309Y-14705476D02*
X12657024Y-14705476D01*
X12714167Y-14705476D02*
X12714167Y-14505476D01*
X12695119Y-14534048D01*
X12676071Y-14553095D01*
X12657024Y-14562619D01*
X12885595Y-14591190D02*
X12866548Y-14581667D01*
X12857024Y-14572143D01*
X12847500Y-14553095D01*
X12847500Y-14543571D01*
X12857024Y-14524524D01*
X12866548Y-14515000D01*
X12885595Y-14505476D01*
X12923690Y-14505476D01*
X12942738Y-14515000D01*
X12952262Y-14524524D01*
X12961786Y-14543571D01*
X12961786Y-14553095D01*
X12952262Y-14572143D01*
X12942738Y-14581667D01*
X12923690Y-14591190D01*
X12885595Y-14591190D01*
X12866548Y-14600714D01*
X12857024Y-14610238D01*
X12847500Y-14629286D01*
X12847500Y-14667381D01*
X12857024Y-14686428D01*
X12866548Y-14695952D01*
X12885595Y-14705476D01*
X12923690Y-14705476D01*
X12942738Y-14695952D01*
X12952262Y-14686428D01*
X12961786Y-14667381D01*
X12961786Y-14629286D01*
X12952262Y-14610238D01*
X12942738Y-14600714D01*
X12923690Y-14591190D01*
X13037976Y-14505476D02*
X13037976Y-14543571D01*
X13114167Y-14505476D02*
X13114167Y-14543571D01*
X13409405Y-14781667D02*
X13399881Y-14772143D01*
X13380833Y-14743571D01*
X13371309Y-14724524D01*
X13361786Y-14695952D01*
X13352262Y-14648333D01*
X13352262Y-14610238D01*
X13361786Y-14562619D01*
X13371309Y-14534048D01*
X13380833Y-14515000D01*
X13399881Y-14486428D01*
X13409405Y-14476905D01*
X13571309Y-14572143D02*
X13571309Y-14705476D01*
X13523690Y-14495952D02*
X13476071Y-14638809D01*
X13599881Y-14638809D01*
X13685595Y-14705476D02*
X13723690Y-14705476D01*
X13742738Y-14695952D01*
X13752262Y-14686428D01*
X13771309Y-14657857D01*
X13780833Y-14619762D01*
X13780833Y-14543571D01*
X13771309Y-14524524D01*
X13761786Y-14515000D01*
X13742738Y-14505476D01*
X13704643Y-14505476D01*
X13685595Y-14515000D01*
X13676071Y-14524524D01*
X13666548Y-14543571D01*
X13666548Y-14591190D01*
X13676071Y-14610238D01*
X13685595Y-14619762D01*
X13704643Y-14629286D01*
X13742738Y-14629286D01*
X13761786Y-14619762D01*
X13771309Y-14610238D01*
X13780833Y-14591190D01*
X13952262Y-14505476D02*
X13914167Y-14505476D01*
X13895119Y-14515000D01*
X13885595Y-14524524D01*
X13866548Y-14553095D01*
X13857024Y-14591190D01*
X13857024Y-14667381D01*
X13866548Y-14686428D01*
X13876071Y-14695952D01*
X13895119Y-14705476D01*
X13933214Y-14705476D01*
X13952262Y-14695952D01*
X13961786Y-14686428D01*
X13971309Y-14667381D01*
X13971309Y-14619762D01*
X13961786Y-14600714D01*
X13952262Y-14591190D01*
X13933214Y-14581667D01*
X13895119Y-14581667D01*
X13876071Y-14591190D01*
X13866548Y-14600714D01*
X13857024Y-14619762D01*
X14209405Y-14705476D02*
X14209405Y-14505476D01*
X14295119Y-14705476D02*
X14295119Y-14600714D01*
X14285595Y-14581667D01*
X14266548Y-14572143D01*
X14237976Y-14572143D01*
X14218928Y-14581667D01*
X14209405Y-14591190D01*
X14418928Y-14705476D02*
X14399881Y-14695952D01*
X14390357Y-14686428D01*
X14380833Y-14667381D01*
X14380833Y-14610238D01*
X14390357Y-14591190D01*
X14399881Y-14581667D01*
X14418928Y-14572143D01*
X14447500Y-14572143D01*
X14466548Y-14581667D01*
X14476071Y-14591190D01*
X14485595Y-14610238D01*
X14485595Y-14667381D01*
X14476071Y-14686428D01*
X14466548Y-14695952D01*
X14447500Y-14705476D01*
X14418928Y-14705476D01*
X14599881Y-14705476D02*
X14580833Y-14695952D01*
X14571309Y-14676905D01*
X14571309Y-14505476D01*
X14752262Y-14695952D02*
X14733214Y-14705476D01*
X14695119Y-14705476D01*
X14676071Y-14695952D01*
X14666548Y-14676905D01*
X14666548Y-14600714D01*
X14676071Y-14581667D01*
X14695119Y-14572143D01*
X14733214Y-14572143D01*
X14752262Y-14581667D01*
X14761786Y-14600714D01*
X14761786Y-14619762D01*
X14666548Y-14638809D01*
X14837976Y-14695952D02*
X14857024Y-14705476D01*
X14895119Y-14705476D01*
X14914167Y-14695952D01*
X14923690Y-14676905D01*
X14923690Y-14667381D01*
X14914167Y-14648333D01*
X14895119Y-14638809D01*
X14866548Y-14638809D01*
X14847500Y-14629286D01*
X14837976Y-14610238D01*
X14837976Y-14600714D01*
X14847500Y-14581667D01*
X14866548Y-14572143D01*
X14895119Y-14572143D01*
X14914167Y-14581667D01*
X14990357Y-14781667D02*
X14999881Y-14772143D01*
X15018928Y-14743571D01*
X15028452Y-14724524D01*
X15037976Y-14695952D01*
X15047500Y-14648333D01*
X15047500Y-14610238D01*
X15037976Y-14562619D01*
X15028452Y-14534048D01*
X15018928Y-14515000D01*
X14999881Y-14486428D01*
X14990357Y-14476905D01*
D13*
X9837500Y-14879000D02*
G75*
G03*
X9837500Y-14879000I-50000J0D01*
G01*
D11*
X10199881Y-14969476D02*
X10085595Y-14969476D01*
X10142738Y-14969476D02*
X10142738Y-14769476D01*
X10123690Y-14798048D01*
X10104643Y-14817095D01*
X10085595Y-14826619D01*
X10285595Y-14950428D02*
X10295119Y-14959952D01*
X10285595Y-14969476D01*
X10276071Y-14959952D01*
X10285595Y-14950428D01*
X10285595Y-14969476D01*
X10418929Y-14769476D02*
X10437976Y-14769476D01*
X10457024Y-14779000D01*
X10466548Y-14788524D01*
X10476071Y-14807571D01*
X10485595Y-14845667D01*
X10485595Y-14893286D01*
X10476071Y-14931381D01*
X10466548Y-14950428D01*
X10457024Y-14959952D01*
X10437976Y-14969476D01*
X10418929Y-14969476D01*
X10399881Y-14959952D01*
X10390357Y-14950428D01*
X10380833Y-14931381D01*
X10371310Y-14893286D01*
X10371310Y-14845667D01*
X10380833Y-14807571D01*
X10390357Y-14788524D01*
X10399881Y-14779000D01*
X10418929Y-14769476D01*
X10609405Y-14769476D02*
X10628452Y-14769476D01*
X10647500Y-14779000D01*
X10657024Y-14788524D01*
X10666548Y-14807571D01*
X10676071Y-14845667D01*
X10676071Y-14893286D01*
X10666548Y-14931381D01*
X10657024Y-14950428D01*
X10647500Y-14959952D01*
X10628452Y-14969476D01*
X10609405Y-14969476D01*
X10590357Y-14959952D01*
X10580833Y-14950428D01*
X10571310Y-14931381D01*
X10561786Y-14893286D01*
X10561786Y-14845667D01*
X10571310Y-14807571D01*
X10580833Y-14788524D01*
X10590357Y-14779000D01*
X10609405Y-14769476D01*
X10799881Y-14769476D02*
X10818929Y-14769476D01*
X10837976Y-14779000D01*
X10847500Y-14788524D01*
X10857024Y-14807571D01*
X10866548Y-14845667D01*
X10866548Y-14893286D01*
X10857024Y-14931381D01*
X10847500Y-14950428D01*
X10837976Y-14959952D01*
X10818929Y-14969476D01*
X10799881Y-14969476D01*
X10780833Y-14959952D01*
X10771310Y-14950428D01*
X10761786Y-14931381D01*
X10752262Y-14893286D01*
X10752262Y-14845667D01*
X10761786Y-14807571D01*
X10771310Y-14788524D01*
X10780833Y-14779000D01*
X10799881Y-14769476D01*
X10952262Y-14969476D02*
X10952262Y-14836143D01*
X10952262Y-14855190D02*
X10961786Y-14845667D01*
X10980833Y-14836143D01*
X11009405Y-14836143D01*
X11028452Y-14845667D01*
X11037976Y-14864714D01*
X11037976Y-14969476D01*
X11037976Y-14864714D02*
X11047500Y-14845667D01*
X11066548Y-14836143D01*
X11095119Y-14836143D01*
X11114167Y-14845667D01*
X11123690Y-14864714D01*
X11123690Y-14969476D01*
X11218928Y-14969476D02*
X11218928Y-14836143D01*
X11218928Y-14855190D02*
X11228452Y-14845667D01*
X11247500Y-14836143D01*
X11276071Y-14836143D01*
X11295119Y-14845667D01*
X11304643Y-14864714D01*
X11304643Y-14969476D01*
X11304643Y-14864714D02*
X11314167Y-14845667D01*
X11333214Y-14836143D01*
X11361786Y-14836143D01*
X11380833Y-14845667D01*
X11390357Y-14864714D01*
X11390357Y-14969476D01*
X11780833Y-14759952D02*
X11609405Y-15017095D01*
X12037976Y-14769476D02*
X12057024Y-14769476D01*
X12076071Y-14779000D01*
X12085595Y-14788524D01*
X12095119Y-14807571D01*
X12104643Y-14845667D01*
X12104643Y-14893286D01*
X12095119Y-14931381D01*
X12085595Y-14950428D01*
X12076071Y-14959952D01*
X12057024Y-14969476D01*
X12037976Y-14969476D01*
X12018928Y-14959952D01*
X12009405Y-14950428D01*
X11999881Y-14931381D01*
X11990357Y-14893286D01*
X11990357Y-14845667D01*
X11999881Y-14807571D01*
X12009405Y-14788524D01*
X12018928Y-14779000D01*
X12037976Y-14769476D01*
X12190357Y-14950428D02*
X12199881Y-14959952D01*
X12190357Y-14969476D01*
X12180833Y-14959952D01*
X12190357Y-14950428D01*
X12190357Y-14969476D01*
X12323690Y-14769476D02*
X12342738Y-14769476D01*
X12361786Y-14779000D01*
X12371309Y-14788524D01*
X12380833Y-14807571D01*
X12390357Y-14845667D01*
X12390357Y-14893286D01*
X12380833Y-14931381D01*
X12371309Y-14950428D01*
X12361786Y-14959952D01*
X12342738Y-14969476D01*
X12323690Y-14969476D01*
X12304643Y-14959952D01*
X12295119Y-14950428D01*
X12285595Y-14931381D01*
X12276071Y-14893286D01*
X12276071Y-14845667D01*
X12285595Y-14807571D01*
X12295119Y-14788524D01*
X12304643Y-14779000D01*
X12323690Y-14769476D01*
X12457024Y-14769476D02*
X12580833Y-14769476D01*
X12514167Y-14845667D01*
X12542738Y-14845667D01*
X12561786Y-14855190D01*
X12571309Y-14864714D01*
X12580833Y-14883762D01*
X12580833Y-14931381D01*
X12571309Y-14950428D01*
X12561786Y-14959952D01*
X12542738Y-14969476D01*
X12485595Y-14969476D01*
X12466548Y-14959952D01*
X12457024Y-14950428D01*
X12676071Y-14969476D02*
X12714167Y-14969476D01*
X12733214Y-14959952D01*
X12742738Y-14950428D01*
X12761786Y-14921857D01*
X12771309Y-14883762D01*
X12771309Y-14807571D01*
X12761786Y-14788524D01*
X12752262Y-14779000D01*
X12733214Y-14769476D01*
X12695119Y-14769476D01*
X12676071Y-14779000D01*
X12666548Y-14788524D01*
X12657024Y-14807571D01*
X12657024Y-14855190D01*
X12666548Y-14874238D01*
X12676071Y-14883762D01*
X12695119Y-14893286D01*
X12733214Y-14893286D01*
X12752262Y-14883762D01*
X12761786Y-14874238D01*
X12771309Y-14855190D01*
X12942738Y-14836143D02*
X12942738Y-14969476D01*
X12895119Y-14759952D02*
X12847500Y-14902809D01*
X12971309Y-14902809D01*
X13037976Y-14769476D02*
X13037976Y-14807571D01*
X13114167Y-14769476D02*
X13114167Y-14807571D01*
X13409405Y-15045667D02*
X13399881Y-15036143D01*
X13380833Y-15007571D01*
X13371309Y-14988524D01*
X13361786Y-14959952D01*
X13352262Y-14912333D01*
X13352262Y-14874238D01*
X13361786Y-14826619D01*
X13371309Y-14798048D01*
X13380833Y-14779000D01*
X13399881Y-14750428D01*
X13409405Y-14740905D01*
X13571309Y-14836143D02*
X13571309Y-14969476D01*
X13523690Y-14759952D02*
X13476071Y-14902809D01*
X13599881Y-14902809D01*
X13714167Y-14769476D02*
X13733214Y-14769476D01*
X13752262Y-14779000D01*
X13761786Y-14788524D01*
X13771309Y-14807571D01*
X13780833Y-14845667D01*
X13780833Y-14893286D01*
X13771309Y-14931381D01*
X13761786Y-14950428D01*
X13752262Y-14959952D01*
X13733214Y-14969476D01*
X13714167Y-14969476D01*
X13695119Y-14959952D01*
X13685595Y-14950428D01*
X13676071Y-14931381D01*
X13666548Y-14893286D01*
X13666548Y-14845667D01*
X13676071Y-14807571D01*
X13685595Y-14788524D01*
X13695119Y-14779000D01*
X13714167Y-14769476D01*
X14018928Y-14969476D02*
X14018928Y-14769476D01*
X14104643Y-14969476D02*
X14104643Y-14864714D01*
X14095119Y-14845667D01*
X14076071Y-14836143D01*
X14047500Y-14836143D01*
X14028452Y-14845667D01*
X14018928Y-14855190D01*
X14228452Y-14969476D02*
X14209405Y-14959952D01*
X14199881Y-14950428D01*
X14190357Y-14931381D01*
X14190357Y-14874238D01*
X14199881Y-14855190D01*
X14209405Y-14845667D01*
X14228452Y-14836143D01*
X14257024Y-14836143D01*
X14276071Y-14845667D01*
X14285595Y-14855190D01*
X14295119Y-14874238D01*
X14295119Y-14931381D01*
X14285595Y-14950428D01*
X14276071Y-14959952D01*
X14257024Y-14969476D01*
X14228452Y-14969476D01*
X14409405Y-14969476D02*
X14390357Y-14959952D01*
X14380833Y-14940905D01*
X14380833Y-14769476D01*
X14561786Y-14959952D02*
X14542738Y-14969476D01*
X14504643Y-14969476D01*
X14485595Y-14959952D01*
X14476071Y-14940905D01*
X14476071Y-14864714D01*
X14485595Y-14845667D01*
X14504643Y-14836143D01*
X14542738Y-14836143D01*
X14561786Y-14845667D01*
X14571309Y-14864714D01*
X14571309Y-14883762D01*
X14476071Y-14902809D01*
X14647500Y-14959952D02*
X14666548Y-14969476D01*
X14704643Y-14969476D01*
X14723690Y-14959952D01*
X14733214Y-14940905D01*
X14733214Y-14931381D01*
X14723690Y-14912333D01*
X14704643Y-14902809D01*
X14676071Y-14902809D01*
X14657024Y-14893286D01*
X14647500Y-14874238D01*
X14647500Y-14864714D01*
X14657024Y-14845667D01*
X14676071Y-14836143D01*
X14704643Y-14836143D01*
X14723690Y-14845667D01*
X14799881Y-15045667D02*
X14809405Y-15036143D01*
X14828452Y-15007571D01*
X14837976Y-14988524D01*
X14847500Y-14959952D01*
X14857024Y-14912333D01*
X14857024Y-14874238D01*
X14847500Y-14826619D01*
X14837976Y-14798048D01*
X14828452Y-14779000D01*
X14809405Y-14750428D01*
X14799881Y-14740905D01*
M02*
